G04 DipTrace 3.0.0.2*
G04 Верхняямаркировка.gbr*
%MOIN*%
G04 #@! TF.FileFunction,Legend,Top*
G04 #@! TF.Part,Single*
%ADD10C,0.01*%
%ADD14C,0.010748*%
%ADD20C,0.015422*%
%ADD22C,0.021645*%
%ADD23C,0.003937*%
%ADD24C,0.001969*%
%ADD48C,0.00772*%
%ADD49C,0.009264*%
%ADD50C,0.006176*%
%ADD51C,0.004632*%
%FSLAX26Y26*%
G04*
G70*
G90*
G75*
G01*
G04 TopSilk*
%LPD*%
X3043701Y1843760D2*
D10*
X3743701D1*
Y3543700D1*
X3043701D1*
Y1843760D1*
D20*
X2678992Y3324550D3*
X2729134Y3315349D2*
D10*
Y3197244D1*
X2748819D1*
Y3315349D1*
X2729134D1*
D20*
X2678992Y3124550D3*
X2729134Y3115349D2*
D10*
Y2997244D1*
X2748819D1*
Y3115349D1*
X2729134D1*
D20*
X2678992Y2924550D3*
X2729134Y2915349D2*
D10*
Y2797244D1*
X2748819D1*
Y2915349D1*
X2729134D1*
D20*
X2678992Y2724550D3*
X2729134Y2715349D2*
D10*
Y2597244D1*
X2748819D1*
Y2715349D1*
X2729134D1*
D20*
X2678992Y2324550D3*
X2729134Y2315349D2*
D10*
Y2197244D1*
X2748819D1*
Y2315349D1*
X2729134D1*
D20*
X2678992Y2124550D3*
X2729134Y2115349D2*
D10*
Y1997244D1*
X2748819D1*
Y2115349D1*
X2729134D1*
D20*
X2678992Y1924550D3*
X2729134Y1915349D2*
D10*
Y1797244D1*
X2748819D1*
Y1915349D1*
X2729134D1*
D20*
X2678992Y1724550D3*
X2729134Y1715349D2*
D10*
Y1597244D1*
X2748819D1*
Y1715349D1*
X2729134D1*
D20*
X2678992Y1324550D3*
X2729134Y1315349D2*
D10*
Y1197244D1*
X2748819D1*
Y1315349D1*
X2729134D1*
D20*
X2678992Y1124550D3*
X2729134Y1115349D2*
D10*
Y997244D1*
X2748819D1*
Y1115349D1*
X2729134D1*
D20*
X2678992Y924550D3*
X2729134Y915349D2*
D10*
Y797244D1*
X2748819D1*
Y915349D1*
X2729134D1*
D20*
X2678992Y724550D3*
X2729134Y715349D2*
D10*
Y597244D1*
X2748819D1*
Y715349D1*
X2729134D1*
D20*
X2678992Y3524550D3*
X2729134Y3515349D2*
D10*
Y3397244D1*
X2748819D1*
Y3515349D1*
X2729134D1*
D20*
X2678992Y2524550D3*
X2729134Y2515349D2*
D10*
Y2397244D1*
X2748819D1*
Y2515349D1*
X2729134D1*
D20*
X2678992Y1524550D3*
X2729134Y1515349D2*
D10*
Y1397244D1*
X2748819D1*
Y1515349D1*
X2729134D1*
X1618701Y2993700D2*
Y3249967D1*
X1468701Y2993700D2*
Y3249967D1*
X1618701D2*
X1468701D1*
Y2993700D2*
X1618701D1*
D22*
X1593898Y3200990D3*
X1555506Y3209798D2*
D23*
X1533861Y3221647D1*
X1555506Y3234782D1*
Y3209798D2*
Y3234782D1*
X1531896Y3209833D2*
Y3235442D1*
X1575201Y3221647D2*
D24*
X1512201D1*
X1571256Y3066150D2*
D23*
X1518111D1*
X1512201Y3036614D2*
X1531896Y3064169D1*
X1575201Y3038595D2*
X1559451Y3066150D1*
X1512201Y3036614D2*
X1522041Y3044502D1*
X1512201Y3036614D2*
X1516146Y3048428D1*
X1868701Y2993700D2*
D10*
Y3249967D1*
X1718701Y2993700D2*
Y3249967D1*
X1868701D2*
X1718701D1*
Y2993700D2*
X1868701D1*
D22*
X1843898Y3200990D3*
X1805506Y3209798D2*
D23*
X1783861Y3221647D1*
X1805506Y3234782D1*
Y3209798D2*
Y3234782D1*
X1781896Y3209833D2*
Y3235442D1*
X1825201Y3221647D2*
D24*
X1762201D1*
X1821256Y3066150D2*
D23*
X1768111D1*
X1762201Y3036614D2*
X1781896Y3064169D1*
X1825201Y3038595D2*
X1809451Y3066150D1*
X1762201Y3036614D2*
X1772041Y3044502D1*
X1762201Y3036614D2*
X1766146Y3048428D1*
X2118701Y2993700D2*
D10*
Y3249967D1*
X1968701Y2993700D2*
Y3249967D1*
X2118701D2*
X1968701D1*
Y2993700D2*
X2118701D1*
D22*
X2093898Y3200990D3*
X2055506Y3209798D2*
D23*
X2033861Y3221647D1*
X2055506Y3234782D1*
Y3209798D2*
Y3234782D1*
X2031896Y3209833D2*
Y3235442D1*
X2075201Y3221647D2*
D24*
X2012201D1*
X2071256Y3066150D2*
D23*
X2018111D1*
X2012201Y3036614D2*
X2031896Y3064169D1*
X2075201Y3038595D2*
X2059451Y3066150D1*
X2012201Y3036614D2*
X2022041Y3044502D1*
X2012201Y3036614D2*
X2016146Y3048428D1*
X2368701Y2993700D2*
D10*
Y3249967D1*
X2218701Y2993700D2*
Y3249967D1*
X2368701D2*
X2218701D1*
Y2993700D2*
X2368701D1*
D22*
X2343898Y3200990D3*
X2305506Y3209798D2*
D23*
X2283861Y3221647D1*
X2305506Y3234782D1*
Y3209798D2*
Y3234782D1*
X2281896Y3209833D2*
Y3235442D1*
X2325201Y3221647D2*
D24*
X2262201D1*
X2321256Y3066150D2*
D23*
X2268111D1*
X2262201Y3036614D2*
X2281896Y3064169D1*
X2325201Y3038595D2*
X2309451Y3066150D1*
X2262201Y3036614D2*
X2272041Y3044502D1*
X2262201Y3036614D2*
X2266146Y3048428D1*
X1618701Y2393700D2*
D10*
Y2649967D1*
X1468701Y2393700D2*
Y2649967D1*
X1618701D2*
X1468701D1*
Y2393700D2*
X1618701D1*
D22*
X1593898Y2600990D3*
X1555506Y2609798D2*
D23*
X1533861Y2621647D1*
X1555506Y2634782D1*
Y2609798D2*
Y2634782D1*
X1531896Y2609833D2*
Y2635442D1*
X1575201Y2621647D2*
D24*
X1512201D1*
X1571256Y2466150D2*
D23*
X1518111D1*
X1512201Y2436614D2*
X1531896Y2464169D1*
X1575201Y2438595D2*
X1559451Y2466150D1*
X1512201Y2436614D2*
X1522041Y2444502D1*
X1512201Y2436614D2*
X1516146Y2448428D1*
X1868701Y2393700D2*
D10*
Y2649967D1*
X1718701Y2393700D2*
Y2649967D1*
X1868701D2*
X1718701D1*
Y2393700D2*
X1868701D1*
D22*
X1843898Y2600990D3*
X1805506Y2609798D2*
D23*
X1783861Y2621647D1*
X1805506Y2634782D1*
Y2609798D2*
Y2634782D1*
X1781896Y2609833D2*
Y2635442D1*
X1825201Y2621647D2*
D24*
X1762201D1*
X1821256Y2466150D2*
D23*
X1768111D1*
X1762201Y2436614D2*
X1781896Y2464169D1*
X1825201Y2438595D2*
X1809451Y2466150D1*
X1762201Y2436614D2*
X1772041Y2444502D1*
X1762201Y2436614D2*
X1766146Y2448428D1*
X2118701Y2393700D2*
D10*
Y2649967D1*
X1968701Y2393700D2*
Y2649967D1*
X2118701D2*
X1968701D1*
Y2393700D2*
X2118701D1*
D22*
X2093898Y2600990D3*
X2055506Y2609798D2*
D23*
X2033861Y2621647D1*
X2055506Y2634782D1*
Y2609798D2*
Y2634782D1*
X2031896Y2609833D2*
Y2635442D1*
X2075201Y2621647D2*
D24*
X2012201D1*
X2071256Y2466150D2*
D23*
X2018111D1*
X2012201Y2436614D2*
X2031896Y2464169D1*
X2075201Y2438595D2*
X2059451Y2466150D1*
X2012201Y2436614D2*
X2022041Y2444502D1*
X2012201Y2436614D2*
X2016146Y2448428D1*
X1618701Y1793700D2*
D10*
Y2049967D1*
X1468701Y1793700D2*
Y2049967D1*
X1618701D2*
X1468701D1*
Y1793700D2*
X1618701D1*
D22*
X1593898Y2000990D3*
X1555506Y2009798D2*
D23*
X1533861Y2021647D1*
X1555506Y2034782D1*
Y2009798D2*
Y2034782D1*
X1531896Y2009833D2*
Y2035442D1*
X1575201Y2021647D2*
D24*
X1512201D1*
X1571256Y1866150D2*
D23*
X1518111D1*
X1512201Y1836614D2*
X1531896Y1864169D1*
X1575201Y1838595D2*
X1559451Y1866150D1*
X1512201Y1836614D2*
X1522041Y1844502D1*
X1512201Y1836614D2*
X1516146Y1848428D1*
X1868701Y1793700D2*
D10*
Y2049967D1*
X1718701Y1793700D2*
Y2049967D1*
X1868701D2*
X1718701D1*
Y1793700D2*
X1868701D1*
D22*
X1843898Y2000990D3*
X1805506Y2009798D2*
D23*
X1783861Y2021647D1*
X1805506Y2034782D1*
Y2009798D2*
Y2034782D1*
X1781896Y2009833D2*
Y2035442D1*
X1825201Y2021647D2*
D24*
X1762201D1*
X1821256Y1866150D2*
D23*
X1768111D1*
X1762201Y1836614D2*
X1781896Y1864169D1*
X1825201Y1838595D2*
X1809451Y1866150D1*
X1762201Y1836614D2*
X1772041Y1844502D1*
X1762201Y1836614D2*
X1766146Y1848428D1*
X2368701Y2393700D2*
D10*
Y2649967D1*
X2218701Y2393700D2*
Y2649967D1*
X2368701D2*
X2218701D1*
Y2393700D2*
X2368701D1*
D22*
X2343898Y2600990D3*
X2305506Y2609798D2*
D23*
X2283861Y2621647D1*
X2305506Y2634782D1*
Y2609798D2*
Y2634782D1*
X2281896Y2609833D2*
Y2635442D1*
X2325201Y2621647D2*
D24*
X2262201D1*
X2321256Y2466150D2*
D23*
X2268111D1*
X2262201Y2436614D2*
X2281896Y2464169D1*
X2325201Y2438595D2*
X2309451Y2466150D1*
X2262201Y2436614D2*
X2272041Y2444502D1*
X2262201Y2436614D2*
X2266146Y2448428D1*
X2118701Y1793700D2*
D10*
Y2049967D1*
X1968701Y1793700D2*
Y2049967D1*
X2118701D2*
X1968701D1*
Y1793700D2*
X2118701D1*
D22*
X2093898Y2000990D3*
X2055506Y2009798D2*
D23*
X2033861Y2021647D1*
X2055506Y2034782D1*
Y2009798D2*
Y2034782D1*
X2031896Y2009833D2*
Y2035442D1*
X2075201Y2021647D2*
D24*
X2012201D1*
X2071256Y1866150D2*
D23*
X2018111D1*
X2012201Y1836614D2*
X2031896Y1864169D1*
X2075201Y1838595D2*
X2059451Y1866150D1*
X2012201Y1836614D2*
X2022041Y1844502D1*
X2012201Y1836614D2*
X2016146Y1848428D1*
X2368701Y1793700D2*
D10*
Y2049967D1*
X2218701Y1793700D2*
Y2049967D1*
X2368701D2*
X2218701D1*
Y1793700D2*
X2368701D1*
D22*
X2343898Y2000990D3*
X2305506Y2009798D2*
D23*
X2283861Y2021647D1*
X2305506Y2034782D1*
Y2009798D2*
Y2034782D1*
X2281896Y2009833D2*
Y2035442D1*
X2325201Y2021647D2*
D24*
X2262201D1*
X2321256Y1866150D2*
D23*
X2268111D1*
X2262201Y1836614D2*
X2281896Y1864169D1*
X2325201Y1838595D2*
X2309451Y1866150D1*
X2262201Y1836614D2*
X2272041Y1844502D1*
X2262201Y1836614D2*
X2266146Y1848428D1*
X443701Y1368701D2*
D14*
X2218701D1*
Y462451D1*
X443701D1*
Y1368701D1*
X3350203Y3566683D2*
D48*
X3331024Y3616923D1*
X3311901Y3566683D1*
X3319086Y3583430D2*
X3343018D1*
X3365642Y3592991D2*
X3387142D1*
X3394327Y3595423D1*
X3396759Y3597800D1*
X3399135Y3602553D1*
Y3607362D1*
X3396759Y3612115D1*
X3394327Y3614547D1*
X3387142Y3616923D1*
X3365642D1*
Y3566683D1*
X3382389Y3592991D2*
X3399135Y3566683D1*
X3414575Y3616923D2*
Y3566683D1*
X3431321D1*
X3438506Y3569115D1*
X3443315Y3573868D1*
X3445691Y3578677D1*
X3448068Y3585806D1*
Y3597800D1*
X3445691Y3604985D1*
X3443315Y3609738D1*
X3438506Y3614547D1*
X3431321Y3616923D1*
X3414575D1*
X3463507Y3607306D2*
X3468316Y3609738D1*
X3475501Y3616868D1*
Y3566683D1*
X2538828Y3556772D2*
X2560328D1*
X2567513Y3559204D1*
X2569945Y3561580D1*
X2572322Y3566333D1*
Y3571142D1*
X2569945Y3575895D1*
X2567513Y3578327D1*
X2560328Y3580703D1*
X2538828D1*
Y3530463D1*
X2555575Y3556772D2*
X2572322Y3530463D1*
X2587761Y3571086D2*
X2592569Y3573518D1*
X2599754Y3580648D1*
Y3530463D1*
X2528078Y3356772D2*
X2549578D1*
X2556763Y3359204D1*
X2559195Y3361580D1*
X2561572Y3366333D1*
Y3371142D1*
X2559195Y3375895D1*
X2556763Y3378327D1*
X2549578Y3380703D1*
X2528078D1*
Y3330463D1*
X2544825Y3356772D2*
X2561572Y3330463D1*
X2579443Y3368710D2*
Y3371086D1*
X2581819Y3375895D1*
X2584196Y3378272D1*
X2589004Y3380648D1*
X2598566D1*
X2603319Y3378272D1*
X2605696Y3375895D1*
X2608128Y3371086D1*
Y3366333D1*
X2605696Y3361525D1*
X2600943Y3354395D1*
X2577011Y3330463D1*
X2610504D1*
X2528078Y3156772D2*
X2549578D1*
X2556763Y3159204D1*
X2559195Y3161580D1*
X2561572Y3166333D1*
Y3171142D1*
X2559195Y3175895D1*
X2556763Y3178327D1*
X2549578Y3180703D1*
X2528078D1*
Y3130463D1*
X2544825Y3156772D2*
X2561572Y3130463D1*
X2581819Y3180648D2*
X2608072D1*
X2593758Y3161525D1*
X2600943D1*
X2605696Y3159148D1*
X2608072Y3156772D1*
X2610504Y3149587D1*
Y3144833D1*
X2608072Y3137648D1*
X2603319Y3132840D1*
X2596134Y3130463D1*
X2588949D1*
X2581819Y3132840D1*
X2579443Y3135272D1*
X2577011Y3140025D1*
X2526890Y2956772D2*
X2548390D1*
X2555575Y2959204D1*
X2558007Y2961580D1*
X2560383Y2966333D1*
Y2971142D1*
X2558007Y2975895D1*
X2555575Y2978327D1*
X2548390Y2980703D1*
X2526890D1*
Y2930463D1*
X2543637Y2956772D2*
X2560383Y2930463D1*
X2599754D2*
Y2980648D1*
X2575823Y2947210D1*
X2611693D1*
X2528078Y2756772D2*
X2549578D1*
X2556763Y2759204D1*
X2559195Y2761580D1*
X2561572Y2766333D1*
Y2771142D1*
X2559195Y2775895D1*
X2556763Y2778327D1*
X2549578Y2780703D1*
X2528078D1*
Y2730463D1*
X2544825Y2756772D2*
X2561572Y2730463D1*
X2605696Y2780648D2*
X2581819D1*
X2579443Y2759148D1*
X2581819Y2761525D1*
X2589004Y2763957D1*
X2596134D1*
X2603319Y2761525D1*
X2608128Y2756772D1*
X2610504Y2749587D1*
Y2744833D1*
X2608128Y2737648D1*
X2603319Y2732840D1*
X2596134Y2730463D1*
X2589004D1*
X2581819Y2732840D1*
X2579443Y2735272D1*
X2577011Y2740025D1*
X2529294Y2556772D2*
X2550794D1*
X2557979Y2559204D1*
X2560411Y2561580D1*
X2562788Y2566333D1*
Y2571142D1*
X2560411Y2575895D1*
X2557979Y2578327D1*
X2550794Y2580703D1*
X2529294D1*
Y2530463D1*
X2546041Y2556772D2*
X2562788Y2530463D1*
X2606912Y2573518D2*
X2604535Y2578272D1*
X2597350Y2580648D1*
X2592597D1*
X2585412Y2578272D1*
X2580603Y2571086D1*
X2578227Y2559148D1*
Y2547210D1*
X2580603Y2537648D1*
X2585412Y2532840D1*
X2592597Y2530463D1*
X2594974D1*
X2602103Y2532840D1*
X2606912Y2537648D1*
X2609288Y2544833D1*
Y2547210D1*
X2606912Y2554395D1*
X2602103Y2559148D1*
X2594974Y2561525D1*
X2592597D1*
X2585412Y2559148D1*
X2580603Y2554395D1*
X2578227Y2547210D1*
X2528078Y2356772D2*
X2549578D1*
X2556763Y2359204D1*
X2559195Y2361580D1*
X2561572Y2366333D1*
Y2371142D1*
X2559195Y2375895D1*
X2556763Y2378327D1*
X2549578Y2380703D1*
X2528078D1*
Y2330463D1*
X2544825Y2356772D2*
X2561572Y2330463D1*
X2586573D2*
X2610504Y2380648D1*
X2577011D1*
X2528106Y2156772D2*
X2549606D1*
X2556791Y2159204D1*
X2559223Y2161580D1*
X2561599Y2166333D1*
Y2171142D1*
X2559223Y2175895D1*
X2556791Y2178327D1*
X2549606Y2180703D1*
X2528106D1*
Y2130463D1*
X2544853Y2156772D2*
X2561599Y2130463D1*
X2588977Y2180648D2*
X2581847Y2178272D1*
X2579415Y2173518D1*
Y2168710D1*
X2581847Y2163957D1*
X2586600Y2161525D1*
X2596162Y2159148D1*
X2603347Y2156772D1*
X2608100Y2151963D1*
X2610477Y2147210D1*
Y2140025D1*
X2608100Y2135272D1*
X2605723Y2132840D1*
X2598538Y2130463D1*
X2588977D1*
X2581847Y2132840D1*
X2579415Y2135272D1*
X2577039Y2140025D1*
Y2147210D1*
X2579415Y2151963D1*
X2584224Y2156772D1*
X2591353Y2159148D1*
X2600915Y2161525D1*
X2605723Y2163957D1*
X2608100Y2168710D1*
Y2173518D1*
X2605723Y2178272D1*
X2598538Y2180648D1*
X2588977D1*
X2529267Y1956772D2*
X2550767D1*
X2557952Y1959204D1*
X2560383Y1961580D1*
X2562760Y1966333D1*
Y1971142D1*
X2560383Y1975895D1*
X2557952Y1978327D1*
X2550767Y1980703D1*
X2529267D1*
Y1930463D1*
X2546013Y1956772D2*
X2562760Y1930463D1*
X2609316Y1963957D2*
X2606884Y1956772D1*
X2602131Y1951963D1*
X2594946Y1949587D1*
X2592569D1*
X2585384Y1951963D1*
X2580631Y1956772D1*
X2578199Y1963957D1*
Y1966333D1*
X2580631Y1973518D1*
X2585384Y1978272D1*
X2592569Y1980648D1*
X2594946D1*
X2602131Y1978272D1*
X2606884Y1973518D1*
X2609316Y1963957D1*
Y1951963D1*
X2606884Y1940025D1*
X2602131Y1932840D1*
X2594946Y1930463D1*
X2590193D1*
X2583008Y1932840D1*
X2580631Y1937648D1*
X2514362Y1756772D2*
X2535862D1*
X2543047Y1759204D1*
X2545479Y1761580D1*
X2547855Y1766333D1*
Y1771142D1*
X2545479Y1775895D1*
X2543047Y1778327D1*
X2535862Y1780703D1*
X2514362D1*
Y1730463D1*
X2531109Y1756772D2*
X2547855Y1730463D1*
X2563295Y1771086D2*
X2568103Y1773518D1*
X2575288Y1780648D1*
Y1730463D1*
X2605097Y1780648D2*
X2597912Y1778272D1*
X2593104Y1771086D1*
X2590727Y1759148D1*
Y1751963D1*
X2593104Y1740025D1*
X2597912Y1732840D1*
X2605097Y1730463D1*
X2609851D1*
X2617036Y1732840D1*
X2621789Y1740025D1*
X2624221Y1751963D1*
Y1759148D1*
X2621789Y1771086D1*
X2617036Y1778272D1*
X2609851Y1780648D1*
X2605097D1*
X2621789Y1771086D2*
X2593104Y1740025D1*
X2525112Y756772D2*
X2546612D1*
X2553797Y759204D1*
X2556229Y761580D1*
X2558605Y766333D1*
Y771142D1*
X2556229Y775895D1*
X2553797Y778327D1*
X2546612Y780703D1*
X2525112D1*
Y730463D1*
X2541859Y756772D2*
X2558605Y730463D1*
X2574045Y771086D2*
X2578853Y773518D1*
X2586038Y780648D1*
Y730463D1*
X2601477Y771086D2*
X2606286Y773518D1*
X2613471Y780648D1*
Y730463D1*
X2514362Y956772D2*
X2535862D1*
X2543047Y959204D1*
X2545479Y961580D1*
X2547855Y966333D1*
Y971142D1*
X2545479Y975895D1*
X2543047Y978327D1*
X2535862Y980703D1*
X2514362D1*
Y930463D1*
X2531109Y956772D2*
X2547855Y930463D1*
X2563295Y971086D2*
X2568103Y973518D1*
X2575288Y980648D1*
Y930463D1*
X2593159Y968710D2*
Y971086D1*
X2595536Y975895D1*
X2597912Y978272D1*
X2602721Y980648D1*
X2612282D1*
X2617036Y978272D1*
X2619412Y975895D1*
X2621844Y971086D1*
Y966333D1*
X2619412Y961525D1*
X2614659Y954395D1*
X2590727Y930463D1*
X2624221D1*
X2514362Y1156772D2*
X2535862D1*
X2543047Y1159204D1*
X2545479Y1161580D1*
X2547855Y1166333D1*
Y1171142D1*
X2545479Y1175895D1*
X2543047Y1178327D1*
X2535862Y1180703D1*
X2514362D1*
Y1130463D1*
X2531109Y1156772D2*
X2547855Y1130463D1*
X2563295Y1171086D2*
X2568103Y1173518D1*
X2575288Y1180648D1*
Y1130463D1*
X2595536Y1180648D2*
X2621789D1*
X2607474Y1161525D1*
X2614659D1*
X2619412Y1159148D1*
X2621789Y1156772D1*
X2624221Y1149587D1*
Y1144833D1*
X2621789Y1137648D1*
X2617036Y1132840D1*
X2609851Y1130463D1*
X2602666D1*
X2595536Y1132840D1*
X2593159Y1135272D1*
X2590727Y1140025D1*
X2513174Y1356772D2*
X2534674D1*
X2541859Y1359204D1*
X2544290Y1361580D1*
X2546667Y1366333D1*
Y1371142D1*
X2544290Y1375895D1*
X2541859Y1378327D1*
X2534674Y1380703D1*
X2513174D1*
Y1330463D1*
X2529920Y1356772D2*
X2546667Y1330463D1*
X2562106Y1371086D2*
X2566915Y1373518D1*
X2574100Y1380648D1*
Y1330463D1*
X2613471D2*
Y1380648D1*
X2589539Y1347210D1*
X2625409D1*
X2514362Y1556772D2*
X2535862D1*
X2543047Y1559204D1*
X2545479Y1561580D1*
X2547855Y1566333D1*
Y1571142D1*
X2545479Y1575895D1*
X2543047Y1578327D1*
X2535862Y1580703D1*
X2514362D1*
Y1530463D1*
X2531109Y1556772D2*
X2547855Y1530463D1*
X2563295Y1571086D2*
X2568103Y1573518D1*
X2575288Y1580648D1*
Y1530463D1*
X2619412Y1580648D2*
X2595536D1*
X2593159Y1559148D1*
X2595536Y1561525D1*
X2602721Y1563957D1*
X2609851D1*
X2617036Y1561525D1*
X2621844Y1556772D1*
X2624221Y1549587D1*
Y1544833D1*
X2621844Y1537648D1*
X2617036Y1532840D1*
X2609851Y1530463D1*
X2602721D1*
X2595536Y1532840D1*
X2593159Y1535272D1*
X2590727Y1540025D1*
X964397Y2356772D2*
X985897D1*
X993082Y2359204D1*
X995514Y2361580D1*
X997890Y2366333D1*
Y2371142D1*
X995514Y2375895D1*
X993082Y2378327D1*
X985897Y2380703D1*
X964397D1*
Y2330463D1*
X981144Y2356772D2*
X997890Y2330463D1*
X1013329Y2371086D2*
X1018138Y2373518D1*
X1025323Y2380648D1*
Y2330463D1*
X1069447Y2373518D2*
X1067070Y2378272D1*
X1059885Y2380648D1*
X1055132D1*
X1047947Y2378272D1*
X1043139Y2371086D1*
X1040762Y2359148D1*
Y2347210D1*
X1043139Y2337648D1*
X1047947Y2332840D1*
X1055132Y2330463D1*
X1057509D1*
X1064639Y2332840D1*
X1069447Y2337648D1*
X1071824Y2344833D1*
Y2347210D1*
X1069447Y2354395D1*
X1064639Y2359148D1*
X1057509Y2361525D1*
X1055132D1*
X1047947Y2359148D1*
X1043139Y2354395D1*
X1040762Y2347210D1*
X963181Y2456772D2*
X984681D1*
X991866Y2459204D1*
X994298Y2461580D1*
X996674Y2466333D1*
Y2471142D1*
X994298Y2475895D1*
X991866Y2478327D1*
X984681Y2480703D1*
X963181D1*
Y2430463D1*
X979928Y2456772D2*
X996674Y2430463D1*
X1012113Y2471086D2*
X1016922Y2473518D1*
X1024107Y2480648D1*
Y2430463D1*
X1049108D2*
X1073040Y2480648D1*
X1039546D1*
X963209Y2556772D2*
X984708D1*
X991893Y2559204D1*
X994325Y2561580D1*
X996702Y2566333D1*
Y2571142D1*
X994325Y2575895D1*
X991893Y2578327D1*
X984708Y2580703D1*
X963209D1*
Y2530463D1*
X979955Y2556772D2*
X996702Y2530463D1*
X1012141Y2571086D2*
X1016950Y2573518D1*
X1024135Y2580648D1*
Y2530463D1*
X1051512Y2580648D2*
X1044382Y2578272D1*
X1041950Y2573518D1*
Y2568710D1*
X1044382Y2563957D1*
X1049135Y2561525D1*
X1058697Y2559148D1*
X1065882Y2556772D1*
X1070635Y2551963D1*
X1073012Y2547210D1*
Y2540025D1*
X1070635Y2535272D1*
X1068259Y2532840D1*
X1061074Y2530463D1*
X1051512D1*
X1044382Y2532840D1*
X1041950Y2535272D1*
X1039574Y2540025D1*
Y2547210D1*
X1041950Y2551963D1*
X1046759Y2556772D1*
X1053889Y2559148D1*
X1063450Y2561525D1*
X1068259Y2563957D1*
X1070635Y2568710D1*
Y2573518D1*
X1068259Y2578272D1*
X1061074Y2580648D1*
X1051512D1*
X964369Y2656772D2*
X985869D1*
X993054Y2659204D1*
X995486Y2661580D1*
X997863Y2666333D1*
Y2671142D1*
X995486Y2675895D1*
X993054Y2678327D1*
X985869Y2680703D1*
X964369D1*
Y2630463D1*
X981116Y2656772D2*
X997863Y2630463D1*
X1013302Y2671086D2*
X1018110Y2673518D1*
X1025295Y2680648D1*
Y2630463D1*
X1071851Y2663957D2*
X1069419Y2656772D1*
X1064666Y2651963D1*
X1057481Y2649587D1*
X1055105D1*
X1047920Y2651963D1*
X1043166Y2656772D1*
X1040735Y2663957D1*
Y2666333D1*
X1043166Y2673518D1*
X1047920Y2678272D1*
X1055105Y2680648D1*
X1057481D1*
X1064666Y2678272D1*
X1069419Y2673518D1*
X1071851Y2663957D1*
Y2651963D1*
X1069419Y2640025D1*
X1064666Y2632840D1*
X1057481Y2630463D1*
X1052728D1*
X1045543Y2632840D1*
X1043166Y2637648D1*
X952431Y2756772D2*
X973931D1*
X981116Y2759204D1*
X983548Y2761580D1*
X985924Y2766333D1*
Y2771142D1*
X983548Y2775895D1*
X981116Y2778327D1*
X973931Y2780703D1*
X952431D1*
Y2730463D1*
X969178Y2756772D2*
X985924Y2730463D1*
X1003795Y2768710D2*
Y2771086D1*
X1006172Y2775895D1*
X1008549Y2778272D1*
X1013357Y2780648D1*
X1022919D1*
X1027672Y2778272D1*
X1030048Y2775895D1*
X1032480Y2771086D1*
Y2766333D1*
X1030048Y2761525D1*
X1025295Y2754395D1*
X1001364Y2730463D1*
X1034857D1*
X1064666Y2780648D2*
X1057481Y2778272D1*
X1052673Y2771086D1*
X1050296Y2759148D1*
Y2751963D1*
X1052673Y2740025D1*
X1057481Y2732840D1*
X1064666Y2730463D1*
X1069419D1*
X1076604Y2732840D1*
X1081358Y2740025D1*
X1083789Y2751963D1*
Y2759148D1*
X1081358Y2771086D1*
X1076604Y2778272D1*
X1069419Y2780648D1*
X1064666D1*
X1081358Y2771086D2*
X1052673Y2740025D1*
X963181Y2856772D2*
X984681D1*
X991866Y2859204D1*
X994298Y2861580D1*
X996674Y2866333D1*
Y2871142D1*
X994298Y2875895D1*
X991866Y2878327D1*
X984681Y2880703D1*
X963181D1*
Y2830463D1*
X979928Y2856772D2*
X996674Y2830463D1*
X1014545Y2868710D2*
Y2871086D1*
X1016922Y2875895D1*
X1019299Y2878272D1*
X1024107Y2880648D1*
X1033669D1*
X1038422Y2878272D1*
X1040798Y2875895D1*
X1043230Y2871086D1*
Y2866333D1*
X1040798Y2861525D1*
X1036045Y2854395D1*
X1012113Y2830463D1*
X1045607D1*
X1061046Y2871086D2*
X1065855Y2873518D1*
X1073040Y2880648D1*
Y2830463D1*
X952431Y2956772D2*
X973931D1*
X981116Y2959204D1*
X983548Y2961580D1*
X985924Y2966333D1*
Y2971142D1*
X983548Y2975895D1*
X981116Y2978327D1*
X973931Y2980703D1*
X952431D1*
Y2930463D1*
X969178Y2956772D2*
X985924Y2930463D1*
X1003795Y2968710D2*
Y2971086D1*
X1006172Y2975895D1*
X1008549Y2978272D1*
X1013357Y2980648D1*
X1022919D1*
X1027672Y2978272D1*
X1030048Y2975895D1*
X1032480Y2971086D1*
Y2966333D1*
X1030048Y2961525D1*
X1025295Y2954395D1*
X1001364Y2930463D1*
X1034857D1*
X1052728Y2968710D2*
Y2971086D1*
X1055105Y2975895D1*
X1057481Y2978272D1*
X1062290Y2980648D1*
X1071851D1*
X1076604Y2978272D1*
X1078981Y2975895D1*
X1081413Y2971086D1*
Y2966333D1*
X1078981Y2961525D1*
X1074228Y2954395D1*
X1050296Y2930463D1*
X1083789D1*
X952431Y3056772D2*
X973931D1*
X981116Y3059204D1*
X983548Y3061580D1*
X985924Y3066333D1*
Y3071142D1*
X983548Y3075895D1*
X981116Y3078327D1*
X973931Y3080703D1*
X952431D1*
Y3030463D1*
X969178Y3056772D2*
X985924Y3030463D1*
X1003795Y3068710D2*
Y3071086D1*
X1006172Y3075895D1*
X1008549Y3078272D1*
X1013357Y3080648D1*
X1022919D1*
X1027672Y3078272D1*
X1030048Y3075895D1*
X1032480Y3071086D1*
Y3066333D1*
X1030048Y3061525D1*
X1025295Y3054395D1*
X1001364Y3030463D1*
X1034857D1*
X1055105Y3080648D2*
X1081358D1*
X1067043Y3061525D1*
X1074228D1*
X1078981Y3059148D1*
X1081358Y3056772D1*
X1083789Y3049587D1*
Y3044833D1*
X1081358Y3037648D1*
X1076604Y3032840D1*
X1069419Y3030463D1*
X1062234D1*
X1055105Y3032840D1*
X1052728Y3035272D1*
X1050296Y3040025D1*
X951243Y3156772D2*
X972743D1*
X979928Y3159204D1*
X982359Y3161580D1*
X984736Y3166333D1*
Y3171142D1*
X982359Y3175895D1*
X979928Y3178327D1*
X972743Y3180703D1*
X951243D1*
Y3130463D1*
X967989Y3156772D2*
X984736Y3130463D1*
X1002607Y3168710D2*
Y3171086D1*
X1004984Y3175895D1*
X1007360Y3178272D1*
X1012169Y3180648D1*
X1021730D1*
X1026484Y3178272D1*
X1028860Y3175895D1*
X1031292Y3171086D1*
Y3166333D1*
X1028860Y3161525D1*
X1024107Y3154395D1*
X1000175Y3130463D1*
X1033669D1*
X1073040D2*
Y3180648D1*
X1049108Y3147210D1*
X1084978D1*
X952431Y3256772D2*
X973931D1*
X981116Y3259204D1*
X983548Y3261580D1*
X985924Y3266333D1*
Y3271142D1*
X983548Y3275895D1*
X981116Y3278327D1*
X973931Y3280703D1*
X952431D1*
Y3230463D1*
X969178Y3256772D2*
X985924Y3230463D1*
X1003795Y3268710D2*
Y3271086D1*
X1006172Y3275895D1*
X1008549Y3278272D1*
X1013357Y3280648D1*
X1022919D1*
X1027672Y3278272D1*
X1030048Y3275895D1*
X1032480Y3271086D1*
Y3266333D1*
X1030048Y3261525D1*
X1025295Y3254395D1*
X1001364Y3230463D1*
X1034857D1*
X1078981Y3280648D2*
X1055105D1*
X1052728Y3259148D1*
X1055105Y3261525D1*
X1062290Y3263957D1*
X1069419D1*
X1076604Y3261525D1*
X1081413Y3256772D1*
X1083789Y3249587D1*
Y3244833D1*
X1081413Y3237648D1*
X1076604Y3232840D1*
X1069419Y3230463D1*
X1062290D1*
X1055105Y3232840D1*
X1052728Y3235272D1*
X1050296Y3240025D1*
X953647Y3356772D2*
X975147D1*
X982332Y3359204D1*
X984764Y3361580D1*
X987140Y3366333D1*
Y3371142D1*
X984764Y3375895D1*
X982332Y3378327D1*
X975147Y3380703D1*
X953647D1*
Y3330463D1*
X970394Y3356772D2*
X987140Y3330463D1*
X1005011Y3368710D2*
Y3371086D1*
X1007388Y3375895D1*
X1009765Y3378272D1*
X1014573Y3380648D1*
X1024135D1*
X1028888Y3378272D1*
X1031264Y3375895D1*
X1033696Y3371086D1*
Y3366333D1*
X1031264Y3361525D1*
X1026511Y3354395D1*
X1002579Y3330463D1*
X1036073D1*
X1080197Y3373518D2*
X1077820Y3378272D1*
X1070635Y3380648D1*
X1065882D1*
X1058697Y3378272D1*
X1053889Y3371086D1*
X1051512Y3359148D1*
Y3347210D1*
X1053889Y3337648D1*
X1058697Y3332840D1*
X1065882Y3330463D1*
X1068259D1*
X1075389Y3332840D1*
X1080197Y3337648D1*
X1082574Y3344833D1*
Y3347210D1*
X1080197Y3354395D1*
X1075389Y3359148D1*
X1068259Y3361525D1*
X1065882D1*
X1058697Y3359148D1*
X1053889Y3354395D1*
X1051512Y3347210D1*
X952431Y3456772D2*
X973931D1*
X981116Y3459204D1*
X983548Y3461580D1*
X985924Y3466333D1*
Y3471142D1*
X983548Y3475895D1*
X981116Y3478327D1*
X973931Y3480703D1*
X952431D1*
Y3430463D1*
X969178Y3456772D2*
X985924Y3430463D1*
X1003795Y3468710D2*
Y3471086D1*
X1006172Y3475895D1*
X1008549Y3478272D1*
X1013357Y3480648D1*
X1022919D1*
X1027672Y3478272D1*
X1030048Y3475895D1*
X1032480Y3471086D1*
Y3466333D1*
X1030048Y3461525D1*
X1025295Y3454395D1*
X1001364Y3430463D1*
X1034857D1*
X1059858D2*
X1083789Y3480648D1*
X1050296D1*
X1502459Y3456772D2*
X1523958D1*
X1531144Y3459204D1*
X1533575Y3461580D1*
X1535952Y3466333D1*
Y3471142D1*
X1533575Y3475895D1*
X1531144Y3478327D1*
X1523958Y3480703D1*
X1502459D1*
Y3430463D1*
X1519205Y3456772D2*
X1535952Y3430463D1*
X1553823Y3468710D2*
Y3471086D1*
X1556200Y3475895D1*
X1558576Y3478272D1*
X1563385Y3480648D1*
X1572946D1*
X1577700Y3478272D1*
X1580076Y3475895D1*
X1582508Y3471086D1*
Y3466333D1*
X1580076Y3461525D1*
X1575323Y3454395D1*
X1551391Y3430463D1*
X1584885D1*
X1612262Y3480648D2*
X1605132Y3478272D1*
X1602700Y3473518D1*
Y3468710D1*
X1605132Y3463957D1*
X1609885Y3461525D1*
X1619447Y3459148D1*
X1626632Y3456772D1*
X1631385Y3451963D1*
X1633762Y3447210D1*
Y3440025D1*
X1631385Y3435272D1*
X1629009Y3432840D1*
X1621824Y3430463D1*
X1612262D1*
X1605132Y3432840D1*
X1602700Y3435272D1*
X1600324Y3440025D1*
Y3447210D1*
X1602700Y3451963D1*
X1607509Y3456772D1*
X1614639Y3459148D1*
X1624200Y3461525D1*
X1629009Y3463957D1*
X1631385Y3468710D1*
Y3473518D1*
X1629009Y3478272D1*
X1621824Y3480648D1*
X1612262D1*
X1753619Y3456772D2*
X1775119D1*
X1782304Y3459204D1*
X1784736Y3461580D1*
X1787113Y3466333D1*
Y3471142D1*
X1784736Y3475895D1*
X1782304Y3478327D1*
X1775119Y3480703D1*
X1753619D1*
Y3430463D1*
X1770366Y3456772D2*
X1787113Y3430463D1*
X1804984Y3468710D2*
Y3471086D1*
X1807360Y3475895D1*
X1809737Y3478272D1*
X1814545Y3480648D1*
X1824107D1*
X1828860Y3478272D1*
X1831237Y3475895D1*
X1833669Y3471086D1*
Y3466333D1*
X1831237Y3461525D1*
X1826484Y3454395D1*
X1802552Y3430463D1*
X1836045D1*
X1882601Y3463957D2*
X1880169Y3456772D1*
X1875416Y3451963D1*
X1868231Y3449587D1*
X1865855D1*
X1858669Y3451963D1*
X1853916Y3456772D1*
X1851484Y3463957D1*
Y3466333D1*
X1853916Y3473518D1*
X1858669Y3478272D1*
X1865855Y3480648D1*
X1868231D1*
X1875416Y3478272D1*
X1880169Y3473518D1*
X1882601Y3463957D1*
Y3451963D1*
X1880169Y3440025D1*
X1875416Y3432840D1*
X1868231Y3430463D1*
X1863478D1*
X1856293Y3432840D1*
X1853916Y3437648D1*
X2002431Y3456772D2*
X2023931D1*
X2031116Y3459204D1*
X2033548Y3461580D1*
X2035924Y3466333D1*
Y3471142D1*
X2033548Y3475895D1*
X2031116Y3478327D1*
X2023931Y3480703D1*
X2002431D1*
Y3430463D1*
X2019178Y3456772D2*
X2035924Y3430463D1*
X2056172Y3480648D2*
X2082425D1*
X2068110Y3461525D1*
X2075295D1*
X2080048Y3459148D1*
X2082425Y3456772D1*
X2084857Y3449587D1*
Y3444833D1*
X2082425Y3437648D1*
X2077672Y3432840D1*
X2070487Y3430463D1*
X2063302D1*
X2056172Y3432840D1*
X2053795Y3435272D1*
X2051364Y3440025D1*
X2114666Y3480648D2*
X2107481Y3478272D1*
X2102673Y3471086D1*
X2100296Y3459148D1*
Y3451963D1*
X2102673Y3440025D1*
X2107481Y3432840D1*
X2114666Y3430463D1*
X2119419D1*
X2126604Y3432840D1*
X2131358Y3440025D1*
X2133789Y3451963D1*
Y3459148D1*
X2131358Y3471086D1*
X2126604Y3478272D1*
X2119419Y3480648D1*
X2114666D1*
X2131358Y3471086D2*
X2102673Y3440025D1*
X2263181Y3456772D2*
X2284681D1*
X2291866Y3459204D1*
X2294298Y3461580D1*
X2296674Y3466333D1*
Y3471142D1*
X2294298Y3475895D1*
X2291866Y3478327D1*
X2284681Y3480703D1*
X2263181D1*
Y3430463D1*
X2279928Y3456772D2*
X2296674Y3430463D1*
X2316922Y3480648D2*
X2343175D1*
X2328860Y3461525D1*
X2336045D1*
X2340798Y3459148D1*
X2343175Y3456772D1*
X2345607Y3449587D1*
Y3444833D1*
X2343175Y3437648D1*
X2338422Y3432840D1*
X2331237Y3430463D1*
X2324052D1*
X2316922Y3432840D1*
X2314545Y3435272D1*
X2312113Y3440025D1*
X2361046Y3471086D2*
X2365855Y3473518D1*
X2373040Y3480648D1*
Y3430463D1*
X1502431Y2856772D2*
X1523931D1*
X1531116Y2859204D1*
X1533548Y2861580D1*
X1535924Y2866333D1*
Y2871142D1*
X1533548Y2875895D1*
X1531116Y2878327D1*
X1523931Y2880703D1*
X1502431D1*
Y2830463D1*
X1519178Y2856772D2*
X1535924Y2830463D1*
X1556172Y2880648D2*
X1582425D1*
X1568110Y2861525D1*
X1575295D1*
X1580048Y2859148D1*
X1582425Y2856772D1*
X1584857Y2849587D1*
Y2844833D1*
X1582425Y2837648D1*
X1577672Y2832840D1*
X1570487Y2830463D1*
X1563302D1*
X1556172Y2832840D1*
X1553795Y2835272D1*
X1551364Y2840025D1*
X1602728Y2868710D2*
Y2871086D1*
X1605105Y2875895D1*
X1607481Y2878272D1*
X1612290Y2880648D1*
X1621851D1*
X1626604Y2878272D1*
X1628981Y2875895D1*
X1631413Y2871086D1*
Y2866333D1*
X1628981Y2861525D1*
X1624228Y2854395D1*
X1600296Y2830463D1*
X1633789D1*
X1752431Y2856772D2*
X1773931D1*
X1781116Y2859204D1*
X1783548Y2861580D1*
X1785924Y2866333D1*
Y2871142D1*
X1783548Y2875895D1*
X1781116Y2878327D1*
X1773931Y2880703D1*
X1752431D1*
Y2830463D1*
X1769178Y2856772D2*
X1785924Y2830463D1*
X1806172Y2880648D2*
X1832425D1*
X1818110Y2861525D1*
X1825295D1*
X1830048Y2859148D1*
X1832425Y2856772D1*
X1834857Y2849587D1*
Y2844833D1*
X1832425Y2837648D1*
X1827672Y2832840D1*
X1820487Y2830463D1*
X1813302D1*
X1806172Y2832840D1*
X1803795Y2835272D1*
X1801364Y2840025D1*
X1855105Y2880648D2*
X1881358D1*
X1867043Y2861525D1*
X1874228D1*
X1878981Y2859148D1*
X1881358Y2856772D1*
X1883789Y2849587D1*
Y2844833D1*
X1881358Y2837648D1*
X1876604Y2832840D1*
X1869419Y2830463D1*
X1862234D1*
X1855105Y2832840D1*
X1852728Y2835272D1*
X1850296Y2840025D1*
X2001243Y2856772D2*
X2022743D1*
X2029928Y2859204D1*
X2032359Y2861580D1*
X2034736Y2866333D1*
Y2871142D1*
X2032359Y2875895D1*
X2029928Y2878327D1*
X2022743Y2880703D1*
X2001243D1*
Y2830463D1*
X2017989Y2856772D2*
X2034736Y2830463D1*
X2054984Y2880648D2*
X2081237D1*
X2066922Y2861525D1*
X2074107D1*
X2078860Y2859148D1*
X2081237Y2856772D1*
X2083669Y2849587D1*
Y2844833D1*
X2081237Y2837648D1*
X2076484Y2832840D1*
X2069299Y2830463D1*
X2062113D1*
X2054984Y2832840D1*
X2052607Y2835272D1*
X2050175Y2840025D1*
X2123040Y2830463D2*
Y2880648D1*
X2099108Y2847210D1*
X2134978D1*
X2252431Y2856772D2*
X2273931D1*
X2281116Y2859204D1*
X2283548Y2861580D1*
X2285924Y2866333D1*
Y2871142D1*
X2283548Y2875895D1*
X2281116Y2878327D1*
X2273931Y2880703D1*
X2252431D1*
Y2830463D1*
X2269178Y2856772D2*
X2285924Y2830463D1*
X2306172Y2880648D2*
X2332425D1*
X2318110Y2861525D1*
X2325295D1*
X2330048Y2859148D1*
X2332425Y2856772D1*
X2334857Y2849587D1*
Y2844833D1*
X2332425Y2837648D1*
X2327672Y2832840D1*
X2320487Y2830463D1*
X2313302D1*
X2306172Y2832840D1*
X2303795Y2835272D1*
X2301364Y2840025D1*
X2378981Y2880648D2*
X2355105D1*
X2352728Y2859148D1*
X2355105Y2861525D1*
X2362290Y2863957D1*
X2369419D1*
X2376604Y2861525D1*
X2381413Y2856772D1*
X2383789Y2849587D1*
Y2844833D1*
X2381413Y2837648D1*
X2376604Y2832840D1*
X2369419Y2830463D1*
X2362290D1*
X2355105Y2832840D1*
X2352728Y2835272D1*
X2350296Y2840025D1*
X1503647Y2256772D2*
X1525147D1*
X1532332Y2259204D1*
X1534764Y2261580D1*
X1537140Y2266333D1*
Y2271142D1*
X1534764Y2275895D1*
X1532332Y2278327D1*
X1525147Y2280703D1*
X1503647D1*
Y2230463D1*
X1520394Y2256772D2*
X1537140Y2230463D1*
X1557388Y2280648D2*
X1583641D1*
X1569326Y2261525D1*
X1576511D1*
X1581264Y2259148D1*
X1583641Y2256772D1*
X1586073Y2249587D1*
Y2244833D1*
X1583641Y2237648D1*
X1578888Y2232840D1*
X1571703Y2230463D1*
X1564518D1*
X1557388Y2232840D1*
X1555011Y2235272D1*
X1552579Y2240025D1*
X1630197Y2273518D2*
X1627820Y2278272D1*
X1620635Y2280648D1*
X1615882D1*
X1608697Y2278272D1*
X1603889Y2271086D1*
X1601512Y2259148D1*
Y2247210D1*
X1603889Y2237648D1*
X1608697Y2232840D1*
X1615882Y2230463D1*
X1618259D1*
X1625389Y2232840D1*
X1630197Y2237648D1*
X1632574Y2244833D1*
Y2247210D1*
X1630197Y2254395D1*
X1625389Y2259148D1*
X1618259Y2261525D1*
X1615882D1*
X1608697Y2259148D1*
X1603889Y2254395D1*
X1601512Y2247210D1*
X1752431Y2256772D2*
X1773931D1*
X1781116Y2259204D1*
X1783548Y2261580D1*
X1785924Y2266333D1*
Y2271142D1*
X1783548Y2275895D1*
X1781116Y2278327D1*
X1773931Y2280703D1*
X1752431D1*
Y2230463D1*
X1769178Y2256772D2*
X1785924Y2230463D1*
X1806172Y2280648D2*
X1832425D1*
X1818110Y2261525D1*
X1825295D1*
X1830048Y2259148D1*
X1832425Y2256772D1*
X1834857Y2249587D1*
Y2244833D1*
X1832425Y2237648D1*
X1827672Y2232840D1*
X1820487Y2230463D1*
X1813302D1*
X1806172Y2232840D1*
X1803795Y2235272D1*
X1801364Y2240025D1*
X1859858Y2230463D2*
X1883789Y2280648D1*
X1850296D1*
X2002459Y2256772D2*
X2023958D1*
X2031144Y2259204D1*
X2033575Y2261580D1*
X2035952Y2266333D1*
Y2271142D1*
X2033575Y2275895D1*
X2031144Y2278327D1*
X2023958Y2280703D1*
X2002459D1*
Y2230463D1*
X2019205Y2256772D2*
X2035952Y2230463D1*
X2056200Y2280648D2*
X2082453D1*
X2068138Y2261525D1*
X2075323D1*
X2080076Y2259148D1*
X2082453Y2256772D1*
X2084885Y2249587D1*
Y2244833D1*
X2082453Y2237648D1*
X2077700Y2232840D1*
X2070514Y2230463D1*
X2063329D1*
X2056200Y2232840D1*
X2053823Y2235272D1*
X2051391Y2240025D1*
X2112262Y2280648D2*
X2105132Y2278272D1*
X2102700Y2273518D1*
Y2268710D1*
X2105132Y2263957D1*
X2109885Y2261525D1*
X2119447Y2259148D1*
X2126632Y2256772D1*
X2131385Y2251963D1*
X2133762Y2247210D1*
Y2240025D1*
X2131385Y2235272D1*
X2129009Y2232840D1*
X2121824Y2230463D1*
X2112262D1*
X2105132Y2232840D1*
X2102700Y2235272D1*
X2100324Y2240025D1*
Y2247210D1*
X2102700Y2251963D1*
X2107509Y2256772D1*
X2114639Y2259148D1*
X2124200Y2261525D1*
X2129009Y2263957D1*
X2131385Y2268710D1*
Y2273518D1*
X2129009Y2278272D1*
X2121824Y2280648D1*
X2112262D1*
X2253619Y2256772D2*
X2275119D1*
X2282304Y2259204D1*
X2284736Y2261580D1*
X2287113Y2266333D1*
Y2271142D1*
X2284736Y2275895D1*
X2282304Y2278327D1*
X2275119Y2280703D1*
X2253619D1*
Y2230463D1*
X2270366Y2256772D2*
X2287113Y2230463D1*
X2307360Y2280648D2*
X2333613D1*
X2319299Y2261525D1*
X2326484D1*
X2331237Y2259148D1*
X2333613Y2256772D1*
X2336045Y2249587D1*
Y2244833D1*
X2333613Y2237648D1*
X2328860Y2232840D1*
X2321675Y2230463D1*
X2314490D1*
X2307360Y2232840D1*
X2304984Y2235272D1*
X2302552Y2240025D1*
X2382601Y2263957D2*
X2380169Y2256772D1*
X2375416Y2251963D1*
X2368231Y2249587D1*
X2365855D1*
X2358669Y2251963D1*
X2353916Y2256772D1*
X2351484Y2263957D1*
Y2266333D1*
X2353916Y2273518D1*
X2358669Y2278272D1*
X2365855Y2280648D1*
X2368231D1*
X2375416Y2278272D1*
X2380169Y2273518D1*
X2382601Y2263957D1*
Y2251963D1*
X2380169Y2240025D1*
X2375416Y2232840D1*
X2368231Y2230463D1*
X2363478D1*
X2356293Y2232840D1*
X2353916Y2237648D1*
X702424Y2356772D2*
X723924D1*
X731109Y2359204D1*
X733541Y2361580D1*
X735917Y2366333D1*
Y2371142D1*
X733541Y2375895D1*
X731109Y2378327D1*
X723924Y2380703D1*
X702424D1*
Y2330463D1*
X719170Y2356772D2*
X735917Y2330463D1*
X775288D2*
Y2380648D1*
X751356Y2347210D1*
X787226D1*
X817036Y2380648D2*
X809851Y2378272D1*
X805042Y2371086D1*
X802666Y2359148D1*
Y2351963D1*
X805042Y2340025D1*
X809851Y2332840D1*
X817036Y2330463D1*
X821789D1*
X828974Y2332840D1*
X833727Y2340025D1*
X836159Y2351963D1*
Y2359148D1*
X833727Y2371086D1*
X828974Y2378272D1*
X821789Y2380648D1*
X817036D1*
X833727Y2371086D2*
X805042Y2340025D1*
X713174Y2456772D2*
X734674D1*
X741859Y2459204D1*
X744290Y2461580D1*
X746667Y2466333D1*
Y2471142D1*
X744290Y2475895D1*
X741859Y2478327D1*
X734674Y2480703D1*
X713174D1*
Y2430463D1*
X729920Y2456772D2*
X746667Y2430463D1*
X786038D2*
Y2480648D1*
X762106Y2447210D1*
X797976D1*
X813415Y2471086D2*
X818224Y2473518D1*
X825409Y2480648D1*
Y2430463D1*
X702424Y2556772D2*
X723924D1*
X731109Y2559204D1*
X733541Y2561580D1*
X735917Y2566333D1*
Y2571142D1*
X733541Y2575895D1*
X731109Y2578327D1*
X723924Y2580703D1*
X702424D1*
Y2530463D1*
X719170Y2556772D2*
X735917Y2530463D1*
X775288D2*
Y2580648D1*
X751356Y2547210D1*
X787226D1*
X805097Y2568710D2*
Y2571086D1*
X807474Y2575895D1*
X809851Y2578272D1*
X814659Y2580648D1*
X824221D1*
X828974Y2578272D1*
X831350Y2575895D1*
X833782Y2571086D1*
Y2566333D1*
X831350Y2561525D1*
X826597Y2554395D1*
X802666Y2530463D1*
X836159D1*
X702424Y2656772D2*
X723924D1*
X731109Y2659204D1*
X733541Y2661580D1*
X735917Y2666333D1*
Y2671142D1*
X733541Y2675895D1*
X731109Y2678327D1*
X723924Y2680703D1*
X702424D1*
Y2630463D1*
X719170Y2656772D2*
X735917Y2630463D1*
X775288D2*
Y2680648D1*
X751356Y2647210D1*
X787226D1*
X807474Y2680648D2*
X833727D1*
X819412Y2661525D1*
X826597D1*
X831350Y2659148D1*
X833727Y2656772D1*
X836159Y2649587D1*
Y2644833D1*
X833727Y2637648D1*
X828974Y2632840D1*
X821789Y2630463D1*
X814604D1*
X807474Y2632840D1*
X805097Y2635272D1*
X802666Y2640025D1*
X701235Y2756772D2*
X722735D1*
X729920Y2759204D1*
X732352Y2761580D1*
X734729Y2766333D1*
Y2771142D1*
X732352Y2775895D1*
X729920Y2778327D1*
X722735Y2780703D1*
X701235D1*
Y2730463D1*
X717982Y2756772D2*
X734729Y2730463D1*
X774100D2*
Y2780648D1*
X750168Y2747210D1*
X786038D1*
X825409Y2730463D2*
Y2780648D1*
X801477Y2747210D1*
X837347D1*
X702424Y2856772D2*
X723924D1*
X731109Y2859204D1*
X733541Y2861580D1*
X735917Y2866333D1*
Y2871142D1*
X733541Y2875895D1*
X731109Y2878327D1*
X723924Y2880703D1*
X702424D1*
Y2830463D1*
X719170Y2856772D2*
X735917Y2830463D1*
X775288D2*
Y2880648D1*
X751356Y2847210D1*
X787226D1*
X831350Y2880648D2*
X807474D1*
X805097Y2859148D1*
X807474Y2861525D1*
X814659Y2863957D1*
X821789D1*
X828974Y2861525D1*
X833782Y2856772D1*
X836159Y2849587D1*
Y2844833D1*
X833782Y2837648D1*
X828974Y2832840D1*
X821789Y2830463D1*
X814659D1*
X807474Y2832840D1*
X805097Y2835272D1*
X802666Y2840025D1*
X703640Y2956772D2*
X725140D1*
X732325Y2959204D1*
X734756Y2961580D1*
X737133Y2966333D1*
Y2971142D1*
X734756Y2975895D1*
X732325Y2978327D1*
X725140Y2980703D1*
X703640D1*
Y2930463D1*
X720386Y2956772D2*
X737133Y2930463D1*
X776504D2*
Y2980648D1*
X752572Y2947210D1*
X788442D1*
X832566Y2973518D2*
X830190Y2978272D1*
X823005Y2980648D1*
X818252D1*
X811067Y2978272D1*
X806258Y2971086D1*
X803881Y2959148D1*
Y2947210D1*
X806258Y2937648D1*
X811067Y2932840D1*
X818252Y2930463D1*
X820628D1*
X827758Y2932840D1*
X832566Y2937648D1*
X834943Y2944833D1*
Y2947210D1*
X832566Y2954395D1*
X827758Y2959148D1*
X820628Y2961525D1*
X818252D1*
X811067Y2959148D1*
X806258Y2954395D1*
X803881Y2947210D1*
X702424Y3056772D2*
X723924D1*
X731109Y3059204D1*
X733541Y3061580D1*
X735917Y3066333D1*
Y3071142D1*
X733541Y3075895D1*
X731109Y3078327D1*
X723924Y3080703D1*
X702424D1*
Y3030463D1*
X719170Y3056772D2*
X735917Y3030463D1*
X775288D2*
Y3080648D1*
X751356Y3047210D1*
X787226D1*
X812227Y3030463D2*
X836159Y3080648D1*
X802666D1*
X702451Y3156772D2*
X723951D1*
X731136Y3159204D1*
X733568Y3161580D1*
X735945Y3166333D1*
Y3171142D1*
X733568Y3175895D1*
X731136Y3178327D1*
X723951Y3180703D1*
X702451D1*
Y3130463D1*
X719198Y3156772D2*
X735945Y3130463D1*
X775316D2*
Y3180648D1*
X751384Y3147210D1*
X787254D1*
X814631Y3180648D2*
X807502Y3178272D1*
X805070Y3173518D1*
Y3168710D1*
X807502Y3163957D1*
X812255Y3161525D1*
X821816Y3159148D1*
X829001Y3156772D1*
X833755Y3151963D1*
X836131Y3147210D1*
Y3140025D1*
X833755Y3135272D1*
X831378Y3132840D1*
X824193Y3130463D1*
X814631D1*
X807502Y3132840D1*
X805070Y3135272D1*
X802693Y3140025D1*
Y3147210D1*
X805070Y3151963D1*
X809878Y3156772D1*
X817008Y3159148D1*
X826570Y3161525D1*
X831378Y3163957D1*
X833755Y3168710D1*
Y3173518D1*
X831378Y3178272D1*
X824193Y3180648D1*
X814631D1*
X703612Y3256772D2*
X725112D1*
X732297Y3259204D1*
X734729Y3261580D1*
X737105Y3266333D1*
Y3271142D1*
X734729Y3275895D1*
X732297Y3278327D1*
X725112Y3280703D1*
X703612D1*
Y3230463D1*
X720359Y3256772D2*
X737105Y3230463D1*
X776476D2*
Y3280648D1*
X752545Y3247210D1*
X788415D1*
X834971Y3263957D2*
X832539Y3256772D1*
X827786Y3251963D1*
X820601Y3249587D1*
X818224D1*
X811039Y3251963D1*
X806286Y3256772D1*
X803854Y3263957D1*
Y3266333D1*
X806286Y3273518D1*
X811039Y3278272D1*
X818224Y3280648D1*
X820601D1*
X827786Y3278272D1*
X832539Y3273518D1*
X834971Y3263957D1*
Y3251963D1*
X832539Y3240025D1*
X827786Y3232840D1*
X820601Y3230463D1*
X815847D1*
X808662Y3232840D1*
X806286Y3237648D1*
X703612Y3356772D2*
X725112D1*
X732297Y3359204D1*
X734729Y3361580D1*
X737105Y3366333D1*
Y3371142D1*
X734729Y3375895D1*
X732297Y3378327D1*
X725112Y3380703D1*
X703612D1*
Y3330463D1*
X720359Y3356772D2*
X737105Y3330463D1*
X781230Y3380648D2*
X757353D1*
X754977Y3359148D1*
X757353Y3361525D1*
X764538Y3363957D1*
X771668D1*
X778853Y3361525D1*
X783661Y3356772D1*
X786038Y3349587D1*
Y3344833D1*
X783661Y3337648D1*
X778853Y3332840D1*
X771668Y3330463D1*
X764538D1*
X757353Y3332840D1*
X754977Y3335272D1*
X752545Y3340025D1*
X815847Y3380648D2*
X808662Y3378272D1*
X803854Y3371086D1*
X801477Y3359148D1*
Y3351963D1*
X803854Y3340025D1*
X808662Y3332840D1*
X815847Y3330463D1*
X820601D1*
X827786Y3332840D1*
X832539Y3340025D1*
X834971Y3351963D1*
Y3359148D1*
X832539Y3371086D1*
X827786Y3378272D1*
X820601Y3380648D1*
X815847D1*
X832539Y3371086D2*
X803854Y3340025D1*
X714362Y3456772D2*
X735862D1*
X743047Y3459204D1*
X745479Y3461580D1*
X747855Y3466333D1*
Y3471142D1*
X745479Y3475895D1*
X743047Y3478327D1*
X735862Y3480703D1*
X714362D1*
Y3430463D1*
X731109Y3456772D2*
X747855Y3430463D1*
X791979Y3480648D2*
X768103D1*
X765726Y3459148D1*
X768103Y3461525D1*
X775288Y3463957D1*
X782418D1*
X789603Y3461525D1*
X794411Y3456772D1*
X796788Y3449587D1*
Y3444833D1*
X794411Y3437648D1*
X789603Y3432840D1*
X782418Y3430463D1*
X775288D1*
X768103Y3432840D1*
X765726Y3435272D1*
X763295Y3440025D1*
X812227Y3471086D2*
X817036Y3473518D1*
X824221Y3480648D1*
Y3430463D1*
X1430630Y1402431D2*
Y1423931D1*
X1428198Y1431116D1*
X1425822Y1433548D1*
X1421068Y1435924D1*
X1416260D1*
X1411507Y1433548D1*
X1409075Y1431116D1*
X1406698Y1423931D1*
Y1402431D1*
X1456938D1*
X1430630Y1419178D2*
X1456938Y1435924D1*
X1406754Y1480049D2*
Y1456172D1*
X1428253Y1453795D1*
X1425877Y1456172D1*
X1423445Y1463357D1*
Y1470487D1*
X1425877Y1477672D1*
X1430630Y1482480D1*
X1437815Y1484857D1*
X1442568D1*
X1449753Y1482480D1*
X1454562Y1477672D1*
X1456938Y1470487D1*
Y1463357D1*
X1454562Y1456172D1*
X1452130Y1453795D1*
X1447377Y1451364D1*
X1418692Y1502728D2*
X1416315D1*
X1411507Y1505105D1*
X1409130Y1507481D1*
X1406754Y1512290D1*
Y1521851D1*
X1409130Y1526604D1*
X1411507Y1528981D1*
X1416315Y1531413D1*
X1421068D1*
X1425877Y1528981D1*
X1433007Y1524228D1*
X1456938Y1500296D1*
Y1533789D1*
X1530630Y1402431D2*
Y1423931D1*
X1528198Y1431116D1*
X1525822Y1433548D1*
X1521068Y1435924D1*
X1516260D1*
X1511507Y1433548D1*
X1509075Y1431116D1*
X1506698Y1423931D1*
Y1402431D1*
X1556938D1*
X1530630Y1419178D2*
X1556938Y1435924D1*
X1506754Y1480049D2*
Y1456172D1*
X1528253Y1453795D1*
X1525877Y1456172D1*
X1523445Y1463357D1*
Y1470487D1*
X1525877Y1477672D1*
X1530630Y1482480D1*
X1537815Y1484857D1*
X1542568D1*
X1549753Y1482480D1*
X1554562Y1477672D1*
X1556938Y1470487D1*
Y1463357D1*
X1554562Y1456172D1*
X1552130Y1453795D1*
X1547377Y1451364D1*
X1506754Y1505105D2*
Y1531358D1*
X1525877Y1517043D1*
Y1524228D1*
X1528253Y1528981D1*
X1530630Y1531358D1*
X1537815Y1533789D1*
X1542568D1*
X1549753Y1531358D1*
X1554562Y1526604D1*
X1556938Y1519419D1*
Y1512234D1*
X1554562Y1505105D1*
X1552130Y1502728D1*
X1547377Y1500296D1*
X1630630Y1401243D2*
Y1422743D1*
X1628198Y1429928D1*
X1625822Y1432360D1*
X1621068Y1434736D1*
X1616260D1*
X1611507Y1432360D1*
X1609075Y1429928D1*
X1606698Y1422743D1*
Y1401243D1*
X1656938D1*
X1630630Y1417989D2*
X1656938Y1434736D1*
X1606754Y1478860D2*
Y1454984D1*
X1628253Y1452607D1*
X1625877Y1454984D1*
X1623445Y1462169D1*
Y1469299D1*
X1625877Y1476484D1*
X1630630Y1481292D1*
X1637815Y1483669D1*
X1642568D1*
X1649753Y1481292D1*
X1654562Y1476484D1*
X1656938Y1469299D1*
Y1462169D1*
X1654562Y1454984D1*
X1652130Y1452607D1*
X1647377Y1450175D1*
X1656938Y1523040D2*
X1606754D1*
X1640192Y1499108D1*
Y1534978D1*
X1730630Y1402431D2*
Y1423931D1*
X1728198Y1431116D1*
X1725822Y1433548D1*
X1721068Y1435924D1*
X1716260D1*
X1711507Y1433548D1*
X1709075Y1431116D1*
X1706698Y1423931D1*
Y1402431D1*
X1756938D1*
X1730630Y1419178D2*
X1756938Y1435924D1*
X1706754Y1480049D2*
Y1456172D1*
X1728253Y1453795D1*
X1725877Y1456172D1*
X1723445Y1463357D1*
Y1470487D1*
X1725877Y1477672D1*
X1730630Y1482480D1*
X1737815Y1484857D1*
X1742568D1*
X1749753Y1482480D1*
X1754562Y1477672D1*
X1756938Y1470487D1*
Y1463357D1*
X1754562Y1456172D1*
X1752130Y1453795D1*
X1747377Y1451364D1*
X1706754Y1528981D2*
Y1505105D1*
X1728253Y1502728D1*
X1725877Y1505105D1*
X1723445Y1512290D1*
Y1519419D1*
X1725877Y1526604D1*
X1730630Y1531413D1*
X1737815Y1533789D1*
X1742568D1*
X1749753Y1531413D1*
X1754562Y1526604D1*
X1756938Y1519419D1*
Y1512290D1*
X1754562Y1505105D1*
X1752130Y1502728D1*
X1747377Y1500296D1*
X930630Y1403647D2*
Y1425147D1*
X928198Y1432332D1*
X925822Y1434764D1*
X921068Y1437140D1*
X916260D1*
X911507Y1434764D1*
X909075Y1432332D1*
X906698Y1425147D1*
Y1403647D1*
X956938D1*
X930630Y1420394D2*
X956938Y1437140D1*
X906754Y1481264D2*
Y1457388D1*
X928253Y1455011D1*
X925877Y1457388D1*
X923445Y1464573D1*
Y1471703D1*
X925877Y1478888D1*
X930630Y1483696D1*
X937815Y1486073D1*
X942568D1*
X949753Y1483696D1*
X954562Y1478888D1*
X956938Y1471703D1*
Y1464573D1*
X954562Y1457388D1*
X952130Y1455011D1*
X947377Y1452580D1*
X913883Y1530197D2*
X909130Y1527820D1*
X906754Y1520635D1*
Y1515882D1*
X909130Y1508697D1*
X916315Y1503889D1*
X928253Y1501512D1*
X940192D1*
X949753Y1503889D1*
X954562Y1508697D1*
X956938Y1515882D1*
Y1518259D1*
X954562Y1525389D1*
X949753Y1530197D1*
X942568Y1532574D1*
X940192D1*
X933007Y1530197D1*
X928253Y1525389D1*
X925877Y1518259D1*
Y1515882D1*
X928253Y1508697D1*
X933007Y1503889D1*
X940192Y1501512D1*
X1030630Y1402431D2*
Y1423931D1*
X1028198Y1431116D1*
X1025822Y1433548D1*
X1021068Y1435924D1*
X1016260D1*
X1011507Y1433548D1*
X1009075Y1431116D1*
X1006698Y1423931D1*
Y1402431D1*
X1056938D1*
X1030630Y1419178D2*
X1056938Y1435924D1*
X1006754Y1480049D2*
Y1456172D1*
X1028253Y1453795D1*
X1025877Y1456172D1*
X1023445Y1463357D1*
Y1470487D1*
X1025877Y1477672D1*
X1030630Y1482480D1*
X1037815Y1484857D1*
X1042568D1*
X1049753Y1482480D1*
X1054562Y1477672D1*
X1056938Y1470487D1*
Y1463357D1*
X1054562Y1456172D1*
X1052130Y1453795D1*
X1047377Y1451364D1*
X1056938Y1509858D2*
X1006754Y1533790D1*
Y1500296D1*
X1130630Y1402459D2*
Y1423959D1*
X1128198Y1431144D1*
X1125822Y1433575D1*
X1121068Y1435952D1*
X1116260D1*
X1111507Y1433575D1*
X1109075Y1431144D1*
X1106698Y1423959D1*
Y1402459D1*
X1156938D1*
X1130630Y1419205D2*
X1156938Y1435952D1*
X1106754Y1480076D2*
Y1456200D1*
X1128253Y1453823D1*
X1125877Y1456200D1*
X1123445Y1463385D1*
Y1470515D1*
X1125877Y1477700D1*
X1130630Y1482508D1*
X1137815Y1484885D1*
X1142568D1*
X1149753Y1482508D1*
X1154562Y1477700D1*
X1156938Y1470514D1*
Y1463385D1*
X1154562Y1456200D1*
X1152130Y1453823D1*
X1147377Y1451391D1*
X1106754Y1512262D2*
X1109130Y1505132D1*
X1113883Y1502700D1*
X1118692D1*
X1123445Y1505132D1*
X1125877Y1509885D1*
X1128253Y1519447D1*
X1130630Y1526632D1*
X1135438Y1531385D1*
X1140192Y1533762D1*
X1147377D1*
X1152130Y1531385D1*
X1154562Y1529009D1*
X1156938Y1521824D1*
Y1512262D1*
X1154562Y1505132D1*
X1152130Y1502700D1*
X1147377Y1500324D1*
X1140192D1*
X1135438Y1502700D1*
X1130630Y1507509D1*
X1128253Y1514639D1*
X1125877Y1524200D1*
X1123445Y1529009D1*
X1118692Y1531385D1*
X1113883D1*
X1109130Y1529009D1*
X1106754Y1521824D1*
Y1512262D1*
X1230630Y1403619D2*
Y1425119D1*
X1228198Y1432304D1*
X1225822Y1434736D1*
X1221068Y1437113D1*
X1216260D1*
X1211507Y1434736D1*
X1209075Y1432304D1*
X1206698Y1425119D1*
Y1403619D1*
X1256938D1*
X1230630Y1420366D2*
X1256938Y1437113D1*
X1206754Y1481237D2*
Y1457360D1*
X1228253Y1454984D1*
X1225877Y1457360D1*
X1223445Y1464545D1*
Y1471675D1*
X1225877Y1478860D1*
X1230630Y1483669D1*
X1237815Y1486045D1*
X1242568D1*
X1249753Y1483669D1*
X1254562Y1478860D1*
X1256938Y1471675D1*
Y1464545D1*
X1254562Y1457360D1*
X1252130Y1454984D1*
X1247377Y1452552D1*
X1223445Y1532601D2*
X1230630Y1530169D1*
X1235438Y1525416D1*
X1237815Y1518231D1*
Y1515855D1*
X1235438Y1508670D1*
X1230630Y1503916D1*
X1223445Y1501484D1*
X1221068D1*
X1213883Y1503916D1*
X1209130Y1508670D1*
X1206754Y1515855D1*
Y1518231D1*
X1209130Y1525416D1*
X1213883Y1530169D1*
X1223445Y1532601D1*
X1235438D1*
X1247377Y1530169D1*
X1254562Y1525416D1*
X1256938Y1518231D1*
Y1513478D1*
X1254562Y1506293D1*
X1249753Y1503916D1*
X953647Y2156772D2*
X975147D1*
X982332Y2159204D1*
X984764Y2161580D1*
X987140Y2166333D1*
Y2171142D1*
X984764Y2175895D1*
X982332Y2178327D1*
X975147Y2180703D1*
X953647D1*
Y2130463D1*
X970394Y2156772D2*
X987140Y2130463D1*
X1031264Y2173518D2*
X1028888Y2178272D1*
X1021703Y2180648D1*
X1016950D1*
X1009765Y2178272D1*
X1004956Y2171086D1*
X1002579Y2159148D1*
Y2147210D1*
X1004956Y2137648D1*
X1009765Y2132840D1*
X1016950Y2130463D1*
X1019326D1*
X1026456Y2132840D1*
X1031264Y2137648D1*
X1033641Y2144833D1*
Y2147210D1*
X1031264Y2154395D1*
X1026456Y2159148D1*
X1019326Y2161525D1*
X1016950D1*
X1009765Y2159148D1*
X1004956Y2154395D1*
X1002579Y2147210D1*
X1063450Y2180648D2*
X1056265Y2178272D1*
X1051457Y2171086D1*
X1049080Y2159148D1*
Y2151963D1*
X1051457Y2140025D1*
X1056265Y2132840D1*
X1063450Y2130463D1*
X1068203D1*
X1075389Y2132840D1*
X1080142Y2140025D1*
X1082574Y2151963D1*
Y2159148D1*
X1080142Y2171086D1*
X1075389Y2178272D1*
X1068203Y2180648D1*
X1063450D1*
X1080142Y2171086D2*
X1051457Y2140025D1*
X964397Y2056772D2*
X985897D1*
X993082Y2059204D1*
X995514Y2061580D1*
X997890Y2066333D1*
Y2071142D1*
X995514Y2075895D1*
X993082Y2078327D1*
X985897Y2080703D1*
X964397D1*
Y2030463D1*
X981144Y2056772D2*
X997890Y2030463D1*
X1042014Y2073518D2*
X1039638Y2078272D1*
X1032453Y2080648D1*
X1027700D1*
X1020514Y2078272D1*
X1015706Y2071086D1*
X1013329Y2059148D1*
Y2047210D1*
X1015706Y2037648D1*
X1020514Y2032840D1*
X1027700Y2030463D1*
X1030076D1*
X1037206Y2032840D1*
X1042014Y2037648D1*
X1044391Y2044833D1*
Y2047210D1*
X1042014Y2054395D1*
X1037206Y2059148D1*
X1030076Y2061525D1*
X1027700D1*
X1020514Y2059148D1*
X1015706Y2054395D1*
X1013329Y2047210D1*
X1059830Y2071086D2*
X1064639Y2073518D1*
X1071824Y2080648D1*
Y2030463D1*
X953647Y1956772D2*
X975147D1*
X982332Y1959204D1*
X984764Y1961580D1*
X987140Y1966333D1*
Y1971142D1*
X984764Y1975895D1*
X982332Y1978327D1*
X975147Y1980703D1*
X953647D1*
Y1930463D1*
X970394Y1956772D2*
X987140Y1930463D1*
X1031264Y1973518D2*
X1028888Y1978272D1*
X1021703Y1980648D1*
X1016950D1*
X1009765Y1978272D1*
X1004956Y1971086D1*
X1002579Y1959148D1*
Y1947210D1*
X1004956Y1937648D1*
X1009765Y1932840D1*
X1016950Y1930463D1*
X1019326D1*
X1026456Y1932840D1*
X1031264Y1937648D1*
X1033641Y1944833D1*
Y1947210D1*
X1031264Y1954395D1*
X1026456Y1959148D1*
X1019326Y1961525D1*
X1016950D1*
X1009765Y1959148D1*
X1004956Y1954395D1*
X1002579Y1947210D1*
X1051512Y1968710D2*
Y1971086D1*
X1053889Y1975895D1*
X1056265Y1978272D1*
X1061074Y1980648D1*
X1070635D1*
X1075389Y1978272D1*
X1077765Y1975895D1*
X1080197Y1971086D1*
Y1966333D1*
X1077765Y1961525D1*
X1073012Y1954395D1*
X1049080Y1930463D1*
X1082574D1*
X953647Y1856772D2*
X975147D1*
X982332Y1859204D1*
X984764Y1861580D1*
X987140Y1866333D1*
Y1871142D1*
X984764Y1875895D1*
X982332Y1878327D1*
X975147Y1880703D1*
X953647D1*
Y1830463D1*
X970394Y1856772D2*
X987140Y1830463D1*
X1031264Y1873518D2*
X1028888Y1878272D1*
X1021703Y1880648D1*
X1016950D1*
X1009765Y1878272D1*
X1004956Y1871086D1*
X1002579Y1859148D1*
Y1847210D1*
X1004956Y1837648D1*
X1009765Y1832840D1*
X1016950Y1830463D1*
X1019326D1*
X1026456Y1832840D1*
X1031264Y1837648D1*
X1033641Y1844833D1*
Y1847210D1*
X1031264Y1854395D1*
X1026456Y1859148D1*
X1019326Y1861525D1*
X1016950D1*
X1009765Y1859148D1*
X1004956Y1854395D1*
X1002579Y1847210D1*
X1053889Y1880648D2*
X1080142D1*
X1065827Y1861525D1*
X1073012D1*
X1077765Y1859148D1*
X1080142Y1856772D1*
X1082574Y1849587D1*
Y1844833D1*
X1080142Y1837648D1*
X1075389Y1832840D1*
X1068203Y1830463D1*
X1061018D1*
X1053889Y1832840D1*
X1051512Y1835272D1*
X1049080Y1840025D1*
X2707638Y3405475D2*
Y3369605D1*
X2710015Y3362420D1*
X2714823Y3357667D1*
X2722008Y3355235D1*
X2726761D1*
X2733946Y3357667D1*
X2738755Y3362420D1*
X2741131Y3369605D1*
Y3405475D1*
X2756571Y3395858D2*
X2761379Y3398290D1*
X2768564Y3405420D1*
Y3355235D1*
X2696888Y3205475D2*
Y3169605D1*
X2699265Y3162420D1*
X2704073Y3157667D1*
X2711258Y3155235D1*
X2716011D1*
X2723196Y3157667D1*
X2728005Y3162420D1*
X2730381Y3169605D1*
Y3205475D1*
X2748253Y3193482D2*
Y3195858D1*
X2750629Y3200667D1*
X2753006Y3203043D1*
X2757814Y3205420D1*
X2767376D1*
X2772129Y3203043D1*
X2774506Y3200667D1*
X2776937Y3195858D1*
Y3191105D1*
X2774506Y3186297D1*
X2769752Y3179167D1*
X2745821Y3155235D1*
X2779314D1*
X2696888Y3005475D2*
Y2969605D1*
X2699265Y2962420D1*
X2704073Y2957667D1*
X2711258Y2955235D1*
X2716011D1*
X2723196Y2957667D1*
X2728005Y2962420D1*
X2730381Y2969605D1*
Y3005475D1*
X2750629Y3005420D2*
X2776882D1*
X2762567Y2986297D1*
X2769752D1*
X2774506Y2983920D1*
X2776882Y2981543D1*
X2779314Y2974358D1*
Y2969605D1*
X2776882Y2962420D1*
X2772129Y2957612D1*
X2764944Y2955235D1*
X2757759D1*
X2750629Y2957612D1*
X2748253Y2960043D1*
X2745821Y2964797D1*
X2695700Y2805475D2*
Y2769605D1*
X2698076Y2762420D1*
X2702885Y2757667D1*
X2710070Y2755235D1*
X2714823D1*
X2722008Y2757667D1*
X2726817Y2762420D1*
X2729193Y2769605D1*
Y2805475D1*
X2768564Y2755235D2*
Y2805420D1*
X2744632Y2771982D1*
X2780502D1*
X2696888Y2405475D2*
Y2369605D1*
X2699265Y2362420D1*
X2704073Y2357667D1*
X2711258Y2355235D1*
X2716011D1*
X2723196Y2357667D1*
X2728005Y2362420D1*
X2730381Y2369605D1*
Y2405475D1*
X2774506Y2405420D2*
X2750629D1*
X2748253Y2383920D1*
X2750629Y2386297D1*
X2757814Y2388728D1*
X2764944D1*
X2772129Y2386297D1*
X2776937Y2381543D1*
X2779314Y2374358D1*
Y2369605D1*
X2776937Y2362420D1*
X2772129Y2357612D1*
X2764944Y2355235D1*
X2757814D1*
X2750629Y2357612D1*
X2748253Y2360043D1*
X2745821Y2364797D1*
X2698104Y2205475D2*
Y2169605D1*
X2700481Y2162420D1*
X2705289Y2157667D1*
X2712474Y2155235D1*
X2717227D1*
X2724412Y2157667D1*
X2729221Y2162420D1*
X2731597Y2169605D1*
Y2205475D1*
X2775721Y2198290D2*
X2773345Y2203043D1*
X2766160Y2205420D1*
X2761407D1*
X2754222Y2203043D1*
X2749413Y2195858D1*
X2747037Y2183920D1*
Y2171982D1*
X2749413Y2162420D1*
X2754222Y2157612D1*
X2761407Y2155235D1*
X2763783D1*
X2770913Y2157612D1*
X2775721Y2162420D1*
X2778098Y2169605D1*
Y2171982D1*
X2775721Y2179167D1*
X2770913Y2183920D1*
X2763783Y2186297D1*
X2761407D1*
X2754222Y2183920D1*
X2749413Y2179167D1*
X2747037Y2171982D1*
X2696888Y2005475D2*
Y1969605D1*
X2699265Y1962420D1*
X2704073Y1957667D1*
X2711258Y1955235D1*
X2716011D1*
X2723196Y1957667D1*
X2728005Y1962420D1*
X2730381Y1969605D1*
Y2005475D1*
X2755382Y1955235D2*
X2779314Y2005420D1*
X2745821D1*
X2696916Y1805475D2*
Y1769605D1*
X2699292Y1762420D1*
X2704101Y1757667D1*
X2711286Y1755235D1*
X2716039D1*
X2723224Y1757667D1*
X2728032Y1762420D1*
X2730409Y1769605D1*
Y1805475D1*
X2757787Y1805420D2*
X2750657Y1803043D1*
X2748225Y1798290D1*
Y1793482D1*
X2750657Y1788728D1*
X2755410Y1786297D1*
X2764972Y1783920D1*
X2772157Y1781543D1*
X2776910Y1776735D1*
X2779286Y1771982D1*
Y1764797D1*
X2776910Y1760043D1*
X2774533Y1757612D1*
X2767348Y1755235D1*
X2757787D1*
X2750657Y1757612D1*
X2748225Y1760043D1*
X2745848Y1764797D1*
Y1771982D1*
X2748225Y1776735D1*
X2753033Y1781543D1*
X2760163Y1783920D1*
X2769725Y1786297D1*
X2774533Y1788728D1*
X2776910Y1793482D1*
Y1798290D1*
X2774533Y1803043D1*
X2767348Y1805420D1*
X2757787D1*
X2698076Y1405475D2*
Y1369605D1*
X2700453Y1362420D1*
X2705261Y1357667D1*
X2712446Y1355235D1*
X2717200D1*
X2724385Y1357667D1*
X2729193Y1362420D1*
X2731570Y1369605D1*
Y1405475D1*
X2778126Y1388728D2*
X2775694Y1381543D1*
X2770941Y1376735D1*
X2763756Y1374358D1*
X2761379D1*
X2754194Y1376735D1*
X2749441Y1381543D1*
X2747009Y1388728D1*
Y1391105D1*
X2749441Y1398290D1*
X2754194Y1403043D1*
X2761379Y1405420D1*
X2763756D1*
X2770941Y1403043D1*
X2775694Y1398290D1*
X2778126Y1388728D1*
Y1376735D1*
X2775694Y1364797D1*
X2770941Y1357612D1*
X2763756Y1355235D1*
X2759002D1*
X2751817Y1357612D1*
X2749441Y1362420D1*
X2598058Y1009819D2*
X2633928D1*
X2641113Y1012195D1*
X2645866Y1017004D1*
X2648298Y1024189D1*
Y1028942D1*
X2645866Y1036127D1*
X2641113Y1040936D1*
X2633928Y1043312D1*
X2598058D1*
X2607675Y1058751D2*
X2605243Y1063560D1*
X2598113Y1070745D1*
X2648298D1*
X2598113Y1100554D2*
X2600490Y1093369D1*
X2607675Y1088561D1*
X2619613Y1086184D1*
X2626798D1*
X2638736Y1088561D1*
X2645921Y1093369D1*
X2648298Y1100554D1*
Y1105307D1*
X2645921Y1112492D1*
X2638736Y1117246D1*
X2626798Y1119677D1*
X2619613D1*
X2607675Y1117246D1*
X2600490Y1112492D1*
X2598113Y1105307D1*
Y1100554D1*
X2607675Y1117246D2*
X2638736Y1088561D1*
X2598058Y820569D2*
X2633928D1*
X2641113Y822945D1*
X2645866Y827754D1*
X2648298Y834939D1*
Y839692D1*
X2645866Y846877D1*
X2641113Y851685D1*
X2633928Y854062D1*
X2598058D1*
X2607675Y869501D2*
X2605243Y874310D1*
X2598113Y881495D1*
X2648298D1*
X2607675Y896934D2*
X2605243Y901742D1*
X2598113Y908927D1*
X2648298D1*
X2598058Y609819D2*
X2633928D1*
X2641113Y612195D1*
X2645866Y617004D1*
X2648298Y624189D1*
Y628942D1*
X2645866Y636127D1*
X2641113Y640936D1*
X2633928Y643312D1*
X2598058D1*
X2607675Y658751D2*
X2605243Y663560D1*
X2598113Y670745D1*
X2648298D1*
X2610051Y688616D2*
X2607675D1*
X2602866Y690993D1*
X2600490Y693369D1*
X2598113Y698178D1*
Y707739D1*
X2600490Y712492D1*
X2602866Y714869D1*
X2607675Y717301D1*
X2612428D1*
X2617236Y714869D1*
X2624366Y710116D1*
X2648298Y686184D1*
Y719677D1*
X2598058Y3409819D2*
X2633928D1*
X2641113Y3412195D1*
X2645866Y3417004D1*
X2648298Y3424189D1*
Y3428942D1*
X2645866Y3436127D1*
X2641113Y3440936D1*
X2633928Y3443312D1*
X2598058D1*
X2607675Y3458751D2*
X2605243Y3463560D1*
X2598113Y3470745D1*
X2648298D1*
X2598113Y3490993D2*
Y3517246D1*
X2617236Y3502931D1*
Y3510116D1*
X2619613Y3514869D1*
X2621990Y3517246D1*
X2629175Y3519677D1*
X2633928D1*
X2641113Y3517246D1*
X2645921Y3512492D1*
X2648298Y3505307D1*
Y3498122D1*
X2645921Y3490992D1*
X2643489Y3488616D1*
X2638736Y3486184D1*
X2598058Y2408631D2*
X2633928D1*
X2641113Y2411007D1*
X2645866Y2415816D1*
X2648298Y2423001D1*
Y2427754D1*
X2645866Y2434939D1*
X2641113Y2439747D1*
X2633928Y2442124D1*
X2598058D1*
X2607675Y2457563D2*
X2605243Y2462372D1*
X2598113Y2469557D1*
X2648298Y2469556D1*
Y2508927D2*
X2598113D1*
X2631551Y2484996D1*
Y2520866D1*
X2598058Y1409819D2*
X2633928D1*
X2641113Y1412195D1*
X2645866Y1417004D1*
X2648298Y1424189D1*
Y1428942D1*
X2645866Y1436127D1*
X2641113Y1440936D1*
X2633928Y1443312D1*
X2598058D1*
X2607675Y1458751D2*
X2605243Y1463560D1*
X2598113Y1470745D1*
X2648298D1*
X2598113Y1514869D2*
Y1490993D1*
X2619613Y1488616D1*
X2617236Y1490993D1*
X2614804Y1498178D1*
Y1505307D1*
X2617236Y1512492D1*
X2621990Y1517301D1*
X2629175Y1519677D1*
X2633928D1*
X2641113Y1517301D1*
X2645921Y1512492D1*
X2648298Y1505307D1*
Y1498178D1*
X2645921Y1490992D1*
X2643489Y1488616D1*
X2638736Y1486184D1*
X1395478Y3074358D2*
X1431348D1*
X1438533Y3076734D1*
X1443286Y3081543D1*
X1445718Y3088728D1*
Y3093481D1*
X1443286Y3100666D1*
X1438533Y3105474D1*
X1431348Y3107851D1*
X1395478D1*
X1405095Y3123290D2*
X1402663Y3128099D1*
X1395533Y3135284D1*
X1445718D1*
X1402663Y3179408D2*
X1397910Y3177031D1*
X1395533Y3169846D1*
Y3165093D1*
X1397910Y3157908D1*
X1405095Y3153099D1*
X1417033Y3150723D1*
X1428971D1*
X1438533Y3153099D1*
X1443341Y3157908D1*
X1445718Y3165093D1*
Y3167469D1*
X1443341Y3174599D1*
X1438533Y3179408D1*
X1431348Y3181784D1*
X1428971D1*
X1421786Y3179408D1*
X1417033Y3174599D1*
X1414656Y3167469D1*
Y3165093D1*
X1417033Y3157908D1*
X1421786Y3153099D1*
X1428971Y3150723D1*
X1645478Y3073142D2*
X1681348D1*
X1688533Y3075518D1*
X1693286Y3080327D1*
X1695718Y3087512D1*
Y3092265D1*
X1693286Y3099450D1*
X1688533Y3104258D1*
X1681348Y3106635D1*
X1645478D1*
X1655095Y3122074D2*
X1652663Y3126883D1*
X1645533Y3134068D1*
X1695718D1*
Y3159068D2*
X1645533Y3183000D1*
Y3149507D1*
X1895478Y3073169D2*
X1931348D1*
X1938533Y3075546D1*
X1943286Y3080354D1*
X1945718Y3087539D1*
Y3092292D1*
X1943286Y3099478D1*
X1938533Y3104286D1*
X1931348Y3106663D1*
X1895478D1*
X1905095Y3122102D2*
X1902663Y3126910D1*
X1895533Y3134095D1*
X1945718D1*
X1895533Y3161473D2*
X1897910Y3154343D1*
X1902663Y3151911D1*
X1907471D1*
X1912224Y3154343D1*
X1914656Y3159096D1*
X1917033Y3168658D1*
X1919409Y3175843D1*
X1924218Y3180596D1*
X1928971Y3182973D1*
X1936156D1*
X1940909Y3180596D1*
X1943341Y3178219D1*
X1945718Y3171034D1*
Y3161473D1*
X1943341Y3154343D1*
X1940909Y3151911D1*
X1936156Y3149535D1*
X1928971D1*
X1924218Y3151911D1*
X1919409Y3156720D1*
X1917033Y3163849D1*
X1914656Y3173411D1*
X1912224Y3178219D1*
X1907471Y3180596D1*
X1902663D1*
X1897910Y3178219D1*
X1895533Y3171034D1*
Y3161473D1*
X2145478Y3074330D2*
X2181348D1*
X2188533Y3076707D1*
X2193286Y3081515D1*
X2195718Y3088700D1*
Y3093453D1*
X2193286Y3100638D1*
X2188533Y3105447D1*
X2181348Y3107823D1*
X2145478D1*
X2155095Y3123262D2*
X2152663Y3128071D1*
X2145533Y3135256D1*
X2195718D1*
X2162224Y3181812D2*
X2169409Y3179380D1*
X2174218Y3174627D1*
X2176595Y3167442D1*
Y3165065D1*
X2174218Y3157880D1*
X2169409Y3153127D1*
X2162224Y3150695D1*
X2159848D1*
X2152663Y3153127D1*
X2147910Y3157880D1*
X2145533Y3165065D1*
Y3167442D1*
X2147910Y3174627D1*
X2152663Y3179380D1*
X2162224Y3181812D1*
X2174218D1*
X2186156Y3179380D1*
X2193341Y3174627D1*
X2195718Y3167442D1*
Y3162689D1*
X2193341Y3155504D1*
X2188533Y3153127D1*
X1395478Y2462392D2*
X1431348D1*
X1438533Y2464768D1*
X1443286Y2469577D1*
X1445718Y2476762D1*
Y2481515D1*
X1443286Y2488700D1*
X1438533Y2493508D1*
X1431348Y2495885D1*
X1395478D1*
X1407471Y2513756D2*
X1405095D1*
X1400286Y2516133D1*
X1397910Y2518509D1*
X1395533Y2523318D1*
Y2532879D1*
X1397910Y2537633D1*
X1400286Y2540009D1*
X1405095Y2542441D1*
X1409848D1*
X1414656Y2540009D1*
X1421786Y2535256D1*
X1445718Y2511324D1*
Y2544818D1*
X1395533Y2574627D2*
X1397910Y2567442D1*
X1405095Y2562633D1*
X1417033Y2560257D1*
X1424218D1*
X1436156Y2562633D1*
X1443341Y2567442D1*
X1445718Y2574627D1*
Y2579380D1*
X1443341Y2586565D1*
X1436156Y2591318D1*
X1424218Y2593750D1*
X1417033D1*
X1405095Y2591318D1*
X1397910Y2586565D1*
X1395533Y2579380D1*
Y2574627D1*
X1405095Y2591318D2*
X1436156Y2562633D1*
X1645478Y2473142D2*
X1681348D1*
X1688533Y2475518D1*
X1693286Y2480327D1*
X1695718Y2487512D1*
Y2492265D1*
X1693286Y2499450D1*
X1688533Y2504258D1*
X1681348Y2506635D1*
X1645478D1*
X1657471Y2524506D2*
X1655095D1*
X1650286Y2526883D1*
X1647910Y2529259D1*
X1645533Y2534068D1*
Y2543629D1*
X1647910Y2548382D1*
X1650286Y2550759D1*
X1655095Y2553191D1*
X1659848D1*
X1664656Y2550759D1*
X1671786Y2546006D1*
X1695718Y2522074D1*
Y2555567D1*
X1655095Y2571007D2*
X1652663Y2575815D1*
X1645533Y2583000D1*
X1695718D1*
X1895478Y2462392D2*
X1931348D1*
X1938533Y2464768D1*
X1943286Y2469577D1*
X1945718Y2476762D1*
Y2481515D1*
X1943286Y2488700D1*
X1938533Y2493508D1*
X1931348Y2495885D1*
X1895478D1*
X1907471Y2513756D2*
X1905095D1*
X1900286Y2516133D1*
X1897910Y2518509D1*
X1895533Y2523318D1*
Y2532879D1*
X1897910Y2537633D1*
X1900286Y2540009D1*
X1905095Y2542441D1*
X1909848D1*
X1914656Y2540009D1*
X1921786Y2535256D1*
X1945718Y2511324D1*
Y2544818D1*
X1907471Y2562689D2*
X1905095D1*
X1900286Y2565065D1*
X1897910Y2567442D1*
X1895533Y2572250D1*
Y2581812D1*
X1897910Y2586565D1*
X1900286Y2588942D1*
X1905095Y2591374D1*
X1909848D1*
X1914656Y2588942D1*
X1921786Y2584189D1*
X1945718Y2560257D1*
Y2593750D1*
X1395478Y1862392D2*
X1431348D1*
X1438533Y1864768D1*
X1443286Y1869577D1*
X1445718Y1876762D1*
Y1881515D1*
X1443286Y1888700D1*
X1438533Y1893508D1*
X1431348Y1895885D1*
X1395478D1*
X1407471Y1913756D2*
X1405095D1*
X1400286Y1916133D1*
X1397910Y1918509D1*
X1395533Y1923318D1*
Y1932879D1*
X1397910Y1937633D1*
X1400286Y1940009D1*
X1405095Y1942441D1*
X1409848D1*
X1414656Y1940009D1*
X1421786Y1935256D1*
X1445718Y1911324D1*
Y1944818D1*
X1395533Y1965065D2*
Y1991318D1*
X1414656Y1977003D1*
Y1984189D1*
X1417033Y1988942D1*
X1419409Y1991318D1*
X1426594Y1993750D1*
X1431348D1*
X1438533Y1991318D1*
X1443341Y1986565D1*
X1445718Y1979380D1*
Y1972195D1*
X1443341Y1965065D1*
X1440909Y1962689D1*
X1436156Y1960257D1*
X1645478Y1861203D2*
X1681348D1*
X1688533Y1863580D1*
X1693286Y1868388D1*
X1695718Y1875573D1*
Y1880327D1*
X1693286Y1887512D1*
X1688533Y1892320D1*
X1681348Y1894697D1*
X1645478D1*
X1657471Y1912568D2*
X1655095D1*
X1650286Y1914944D1*
X1647910Y1917321D1*
X1645533Y1922129D1*
Y1931691D1*
X1647910Y1936444D1*
X1650286Y1938821D1*
X1655095Y1941253D1*
X1659848D1*
X1664656Y1938821D1*
X1671786Y1934068D1*
X1695718Y1910136D1*
Y1943629D1*
Y1983000D2*
X1645533D1*
X1678971Y1959069D1*
Y1994938D1*
X2145478Y2462392D2*
X2181348D1*
X2188533Y2464768D1*
X2193286Y2469577D1*
X2195718Y2476762D1*
Y2481515D1*
X2193286Y2488700D1*
X2188533Y2493508D1*
X2181348Y2495885D1*
X2145478D1*
X2157471Y2513756D2*
X2155095D1*
X2150286Y2516133D1*
X2147910Y2518509D1*
X2145533Y2523318D1*
Y2532879D1*
X2147910Y2537633D1*
X2150286Y2540009D1*
X2155095Y2542441D1*
X2159848D1*
X2164656Y2540009D1*
X2171786Y2535256D1*
X2195718Y2511324D1*
Y2544818D1*
X2145533Y2588942D2*
Y2565065D1*
X2167033Y2562689D1*
X2164656Y2565065D1*
X2162224Y2572250D1*
Y2579380D1*
X2164656Y2586565D1*
X2169409Y2591374D1*
X2176594Y2593750D1*
X2181348D1*
X2188533Y2591374D1*
X2193341Y2586565D1*
X2195718Y2579380D1*
Y2572250D1*
X2193341Y2565065D1*
X2190909Y2562689D1*
X2186156Y2560257D1*
X1895478Y1863608D2*
X1931348D1*
X1938533Y1865984D1*
X1943286Y1870793D1*
X1945718Y1877978D1*
Y1882731D1*
X1943286Y1889916D1*
X1938533Y1894724D1*
X1931348Y1897101D1*
X1895478D1*
X1907471Y1914972D2*
X1905095D1*
X1900286Y1917349D1*
X1897910Y1919725D1*
X1895533Y1924534D1*
Y1934095D1*
X1897910Y1938848D1*
X1900286Y1941225D1*
X1905095Y1943657D1*
X1909848D1*
X1914656Y1941225D1*
X1921786Y1936472D1*
X1945718Y1912540D1*
Y1946033D1*
X1902663Y1990158D2*
X1897910Y1987781D1*
X1895533Y1980596D1*
Y1975843D1*
X1897910Y1968658D1*
X1905095Y1963849D1*
X1917033Y1961473D1*
X1928971D1*
X1938533Y1963849D1*
X1943341Y1968658D1*
X1945718Y1975843D1*
Y1978219D1*
X1943341Y1985349D1*
X1938533Y1990158D1*
X1931348Y1992534D1*
X1928971D1*
X1921786Y1990158D1*
X1917033Y1985349D1*
X1914656Y1978219D1*
Y1975843D1*
X1917033Y1968658D1*
X1921786Y1963849D1*
X1928971Y1961473D1*
X2145478Y1862392D2*
X2181348D1*
X2188533Y1864768D1*
X2193286Y1869577D1*
X2195718Y1876762D1*
Y1881515D1*
X2193286Y1888700D1*
X2188533Y1893508D1*
X2181348Y1895885D1*
X2145478D1*
X2157471Y1913756D2*
X2155095D1*
X2150286Y1916133D1*
X2147910Y1918509D1*
X2145533Y1923318D1*
Y1932879D1*
X2147910Y1937633D1*
X2150286Y1940009D1*
X2155095Y1942441D1*
X2159848D1*
X2164656Y1940009D1*
X2171786Y1935256D1*
X2195718Y1911324D1*
Y1944818D1*
Y1969818D2*
X2145533Y1993750D1*
Y1960257D1*
X1175035Y1958122D2*
D49*
Y1912159D1*
X1172183Y1903604D1*
X1169331Y1900686D1*
X1163561Y1897834D1*
X1154939D1*
X1149235Y1900686D1*
X1175035Y1949500D2*
X1169331Y1955203D1*
X1163561Y1958122D1*
X1154939D1*
X1149235Y1955203D1*
X1143465Y1949500D1*
X1140613Y1940878D1*
Y1935107D1*
X1143465Y1926552D1*
X1149235Y1920782D1*
X1154939Y1917930D1*
X1163561D1*
X1169331Y1920782D1*
X1175035Y1926552D1*
X1193562Y1960974D2*
Y1920782D1*
Y1949500D2*
X1202184Y1958122D1*
X1207955Y1960974D1*
X1216510D1*
X1222280Y1958122D1*
X1225132Y1949500D1*
Y1920782D1*
X1278081Y1981070D2*
Y1920782D1*
Y1952351D2*
X1272377Y1958122D1*
X1266607Y1960974D1*
X1257985D1*
X1252281Y1958122D1*
X1246511Y1952351D1*
X1243659Y1943729D1*
Y1938026D1*
X1246511Y1929404D1*
X1252281Y1923700D1*
X1257985Y1920782D1*
X1266607D1*
X1272377Y1923700D1*
X1278081Y1929404D1*
X538780Y1100938D2*
D50*
X554078Y1060746D1*
X569377Y1100938D1*
X610424Y1091388D2*
X608523Y1095190D1*
X604676Y1099037D1*
X600874Y1100938D1*
X593224D1*
X589377Y1099037D1*
X585575Y1095190D1*
X583629Y1091388D1*
X581728Y1085640D1*
Y1076045D1*
X583629Y1070341D1*
X585575Y1066494D1*
X589377Y1062692D1*
X593224Y1060746D1*
X600874D1*
X604676Y1062692D1*
X608523Y1066494D1*
X610424Y1070341D1*
X651471Y1091388D2*
X649570Y1095190D1*
X645723Y1099037D1*
X641921Y1100938D1*
X634272D1*
X630425Y1099037D1*
X626622Y1095190D1*
X624677Y1091388D1*
X622775Y1085640D1*
Y1076045D1*
X624677Y1070341D1*
X626622Y1066494D1*
X630425Y1062692D1*
X634272Y1060746D1*
X641921D1*
X645723Y1062692D1*
X649570Y1066494D1*
X651471Y1070341D1*
X574956Y1008907D2*
X573055Y1012710D1*
X569208Y1016557D1*
X565405Y1018458D1*
X557756D1*
X553909Y1016557D1*
X550107Y1012710D1*
X548161Y1008907D1*
X546260Y1003159D1*
Y993565D1*
X548161Y987861D1*
X550107Y984014D1*
X553909Y980211D1*
X557756Y978266D1*
X565405D1*
X569208Y980211D1*
X573055Y984014D1*
X574956Y987861D1*
Y993565D1*
X565405D1*
X614102Y1018458D2*
Y978266D1*
X587307Y1018458D1*
Y978266D1*
X626453Y1018458D2*
Y978266D1*
X639851D1*
X645599Y980211D1*
X649445Y984014D1*
X651347Y987861D1*
X653248Y993565D1*
Y1003159D1*
X651347Y1008907D1*
X649445Y1012710D1*
X645599Y1016557D1*
X639851Y1018458D1*
X626453D1*
X573676Y938927D2*
X571775Y942730D1*
X567928Y946576D1*
X564126Y948478D1*
X556476D1*
X552630Y946576D1*
X548827Y942730D1*
X546882Y938927D1*
X544980Y933179D1*
Y923584D1*
X546882Y917880D1*
X548827Y914034D1*
X552630Y910231D1*
X556476Y908286D1*
X564126D1*
X567928Y910231D1*
X571775Y914034D1*
X573676Y917880D1*
X586028Y948478D2*
Y908286D1*
X608976D1*
X621327Y948478D2*
Y908286D1*
X648122Y948478D2*
X621327Y921683D1*
X630878Y931278D2*
X648122Y908286D1*
X546260Y869737D2*
Y829545D1*
X559657D1*
X565405Y831491D1*
X569252Y835293D1*
X571153Y839140D1*
X573055Y844844D1*
Y854439D1*
X571153Y860187D1*
X569252Y863989D1*
X565405Y867836D1*
X559657Y869737D1*
X546260D1*
X616047Y829545D2*
X600705Y869737D1*
X585406Y829545D1*
X591154Y842943D2*
X610299D1*
X641796Y869737D2*
Y829545D1*
X628399Y869737D2*
X655193D1*
X544980Y768112D2*
X562180D1*
X567928Y770057D1*
X569874Y771959D1*
X571775Y775761D1*
Y779608D1*
X569874Y783410D1*
X567928Y785356D1*
X562180Y787257D1*
X544980D1*
Y747065D1*
X558378Y768112D2*
X571775Y747065D1*
X610921Y781509D2*
X607119Y785356D1*
X601370Y787257D1*
X593721D1*
X587973Y785356D1*
X584126Y781509D1*
Y777707D1*
X586072Y773860D1*
X587973Y771959D1*
X591776Y770057D1*
X603272Y766210D1*
X607119Y764309D1*
X609020Y762364D1*
X610921Y758561D1*
Y752813D1*
X607119Y749011D1*
X601370Y747065D1*
X593721D1*
X587973Y749011D1*
X584126Y752813D1*
X636670Y787257D2*
Y747065D1*
X623272Y787257D2*
X650067D1*
X1603365Y3131097D2*
D51*
X1590432D1*
X1586154Y3129671D1*
X1584695Y3128212D1*
X1583269Y3125360D1*
Y3121049D1*
X1584695Y3118198D1*
X1586154Y3116738D1*
X1590432Y3115312D1*
X1603365D1*
Y3145456D1*
X1552483Y3122475D2*
X1553909Y3119623D1*
X1556794Y3116738D1*
X1559646Y3115312D1*
X1565383D1*
X1568268Y3116738D1*
X1571120Y3119623D1*
X1572579Y3122475D1*
X1574005Y3126786D1*
Y3133982D1*
X1572579Y3138260D1*
X1571120Y3141145D1*
X1568268Y3143997D1*
X1565383Y3145456D1*
X1559646D1*
X1556794Y3143997D1*
X1553909Y3141145D1*
X1552483Y3138260D1*
X1536057Y3115346D2*
X1540335Y3116772D1*
X1541794Y3119623D1*
Y3122509D1*
X1540335Y3125360D1*
X1537483Y3126820D1*
X1531746Y3128245D1*
X1527435Y3129671D1*
X1524583Y3132557D1*
X1523157Y3135408D1*
Y3139719D1*
X1524583Y3142571D1*
X1526009Y3144030D1*
X1530320Y3145456D1*
X1536057D1*
X1540335Y3144030D1*
X1541794Y3142571D1*
X1543220Y3139719D1*
Y3135408D1*
X1541794Y3132557D1*
X1538909Y3129671D1*
X1534631Y3128245D1*
X1528894Y3126820D1*
X1526009Y3125360D1*
X1524583Y3122509D1*
Y3119623D1*
X1526009Y3116772D1*
X1530320Y3115346D1*
X1536057D1*
X1513893Y3121083D2*
X1511008Y3119623D1*
X1506697Y3115346D1*
Y3145456D1*
X1491697D2*
X1477338Y3115346D1*
X1497434D1*
X1853365Y3131097D2*
X1840432D1*
X1836154Y3129671D1*
X1834695Y3128212D1*
X1833269Y3125360D1*
Y3121049D1*
X1834695Y3118198D1*
X1836154Y3116738D1*
X1840432Y3115312D1*
X1853365D1*
Y3145456D1*
X1802483Y3122475D2*
X1803909Y3119623D1*
X1806794Y3116738D1*
X1809646Y3115312D1*
X1815383D1*
X1818268Y3116738D1*
X1821120Y3119623D1*
X1822579Y3122475D1*
X1824005Y3126786D1*
Y3133982D1*
X1822579Y3138260D1*
X1821120Y3141145D1*
X1818268Y3143997D1*
X1815383Y3145456D1*
X1809646D1*
X1806794Y3143997D1*
X1803909Y3141145D1*
X1802483Y3138260D1*
X1786057Y3115346D2*
X1790335Y3116772D1*
X1791794Y3119623D1*
Y3122509D1*
X1790335Y3125360D1*
X1787483Y3126820D1*
X1781746Y3128245D1*
X1777435Y3129671D1*
X1774583Y3132557D1*
X1773157Y3135408D1*
Y3139719D1*
X1774583Y3142571D1*
X1776009Y3144030D1*
X1780320Y3145456D1*
X1786057D1*
X1790335Y3144030D1*
X1791794Y3142571D1*
X1793220Y3139719D1*
Y3135408D1*
X1791794Y3132557D1*
X1788909Y3129671D1*
X1784631Y3128245D1*
X1778894Y3126820D1*
X1776009Y3125360D1*
X1774583Y3122509D1*
Y3119623D1*
X1776009Y3116772D1*
X1780320Y3115346D1*
X1786057D1*
X1763893Y3121083D2*
X1761008Y3119623D1*
X1756697Y3115346D1*
Y3145456D1*
X1741697D2*
X1727338Y3115346D1*
X1747434D1*
X2103365Y3131097D2*
X2090432D1*
X2086154Y3129671D1*
X2084695Y3128212D1*
X2083269Y3125360D1*
Y3121049D1*
X2084695Y3118198D1*
X2086154Y3116738D1*
X2090432Y3115312D1*
X2103365D1*
Y3145456D1*
X2052483Y3122475D2*
X2053909Y3119623D1*
X2056794Y3116738D1*
X2059646Y3115312D1*
X2065383D1*
X2068268Y3116738D1*
X2071120Y3119623D1*
X2072579Y3122475D1*
X2074005Y3126786D1*
Y3133982D1*
X2072579Y3138260D1*
X2071120Y3141145D1*
X2068268Y3143997D1*
X2065383Y3145456D1*
X2059646D1*
X2056794Y3143997D1*
X2053909Y3141145D1*
X2052483Y3138260D1*
X2036057Y3115346D2*
X2040335Y3116772D1*
X2041794Y3119623D1*
Y3122509D1*
X2040335Y3125360D1*
X2037483Y3126820D1*
X2031746Y3128245D1*
X2027435Y3129671D1*
X2024583Y3132557D1*
X2023157Y3135408D1*
Y3139719D1*
X2024583Y3142571D1*
X2026009Y3144030D1*
X2030320Y3145456D1*
X2036057D1*
X2040335Y3144030D1*
X2041794Y3142571D1*
X2043220Y3139719D1*
Y3135408D1*
X2041794Y3132557D1*
X2038909Y3129671D1*
X2034631Y3128245D1*
X2028894Y3126820D1*
X2026009Y3125360D1*
X2024583Y3122509D1*
Y3119623D1*
X2026009Y3116772D1*
X2030320Y3115346D1*
X2036057D1*
X2013893Y3121083D2*
X2011008Y3119623D1*
X2006697Y3115346D1*
Y3145456D1*
X1991697D2*
X1977338Y3115346D1*
X1997434D1*
X2353365Y3131097D2*
X2340432D1*
X2336154Y3129671D1*
X2334695Y3128212D1*
X2333269Y3125360D1*
Y3121049D1*
X2334695Y3118198D1*
X2336154Y3116738D1*
X2340432Y3115312D1*
X2353365D1*
Y3145456D1*
X2302483Y3122475D2*
X2303909Y3119623D1*
X2306794Y3116738D1*
X2309646Y3115312D1*
X2315383D1*
X2318268Y3116738D1*
X2321120Y3119623D1*
X2322579Y3122475D1*
X2324005Y3126786D1*
Y3133982D1*
X2322579Y3138260D1*
X2321120Y3141145D1*
X2318268Y3143997D1*
X2315383Y3145456D1*
X2309646D1*
X2306794Y3143997D1*
X2303909Y3141145D1*
X2302483Y3138260D1*
X2286057Y3115346D2*
X2290335Y3116772D1*
X2291794Y3119623D1*
Y3122509D1*
X2290335Y3125360D1*
X2287483Y3126820D1*
X2281746Y3128245D1*
X2277435Y3129671D1*
X2274583Y3132557D1*
X2273157Y3135408D1*
Y3139719D1*
X2274583Y3142571D1*
X2276009Y3144030D1*
X2280320Y3145456D1*
X2286057D1*
X2290335Y3144030D1*
X2291794Y3142571D1*
X2293220Y3139719D1*
Y3135408D1*
X2291794Y3132557D1*
X2288909Y3129671D1*
X2284631Y3128245D1*
X2278894Y3126820D1*
X2276009Y3125360D1*
X2274583Y3122509D1*
Y3119623D1*
X2276009Y3116772D1*
X2280320Y3115346D1*
X2286057D1*
X2263893Y3121083D2*
X2261008Y3119623D1*
X2256697Y3115346D1*
Y3145456D1*
X2241697D2*
X2227338Y3115346D1*
X2247434D1*
X1603365Y2531097D2*
X1590432D1*
X1586154Y2529671D1*
X1584695Y2528212D1*
X1583269Y2525360D1*
Y2521049D1*
X1584695Y2518198D1*
X1586154Y2516738D1*
X1590432Y2515312D1*
X1603365D1*
Y2545456D1*
X1552483Y2522475D2*
X1553909Y2519623D1*
X1556794Y2516738D1*
X1559646Y2515312D1*
X1565383D1*
X1568268Y2516738D1*
X1571120Y2519623D1*
X1572579Y2522475D1*
X1574005Y2526786D1*
Y2533982D1*
X1572579Y2538260D1*
X1571120Y2541145D1*
X1568268Y2543997D1*
X1565383Y2545456D1*
X1559646D1*
X1556794Y2543997D1*
X1553909Y2541145D1*
X1552483Y2538260D1*
X1536057Y2515346D2*
X1540335Y2516772D1*
X1541794Y2519623D1*
Y2522509D1*
X1540335Y2525360D1*
X1537483Y2526820D1*
X1531746Y2528245D1*
X1527435Y2529671D1*
X1524583Y2532557D1*
X1523157Y2535408D1*
Y2539719D1*
X1524583Y2542571D1*
X1526009Y2544030D1*
X1530320Y2545456D1*
X1536057D1*
X1540335Y2544030D1*
X1541794Y2542571D1*
X1543220Y2539719D1*
Y2535408D1*
X1541794Y2532557D1*
X1538909Y2529671D1*
X1534631Y2528245D1*
X1528894Y2526820D1*
X1526009Y2525360D1*
X1524583Y2522509D1*
Y2519623D1*
X1526009Y2516772D1*
X1530320Y2515346D1*
X1536057D1*
X1513893Y2521083D2*
X1511008Y2519623D1*
X1506697Y2515346D1*
Y2545456D1*
X1491697D2*
X1477338Y2515346D1*
X1497434D1*
X1853365Y2531097D2*
X1840432D1*
X1836154Y2529671D1*
X1834695Y2528212D1*
X1833269Y2525360D1*
Y2521049D1*
X1834695Y2518198D1*
X1836154Y2516738D1*
X1840432Y2515312D1*
X1853365D1*
Y2545456D1*
X1802483Y2522475D2*
X1803909Y2519623D1*
X1806794Y2516738D1*
X1809646Y2515312D1*
X1815383D1*
X1818268Y2516738D1*
X1821120Y2519623D1*
X1822579Y2522475D1*
X1824005Y2526786D1*
Y2533982D1*
X1822579Y2538260D1*
X1821120Y2541145D1*
X1818268Y2543997D1*
X1815383Y2545456D1*
X1809646D1*
X1806794Y2543997D1*
X1803909Y2541145D1*
X1802483Y2538260D1*
X1786057Y2515346D2*
X1790335Y2516772D1*
X1791794Y2519623D1*
Y2522509D1*
X1790335Y2525360D1*
X1787483Y2526820D1*
X1781746Y2528245D1*
X1777435Y2529671D1*
X1774583Y2532557D1*
X1773157Y2535408D1*
Y2539719D1*
X1774583Y2542571D1*
X1776009Y2544030D1*
X1780320Y2545456D1*
X1786057D1*
X1790335Y2544030D1*
X1791794Y2542571D1*
X1793220Y2539719D1*
Y2535408D1*
X1791794Y2532557D1*
X1788909Y2529671D1*
X1784631Y2528245D1*
X1778894Y2526820D1*
X1776009Y2525360D1*
X1774583Y2522509D1*
Y2519623D1*
X1776009Y2516772D1*
X1780320Y2515346D1*
X1786057D1*
X1763893Y2521083D2*
X1761008Y2519623D1*
X1756697Y2515346D1*
Y2545456D1*
X1741697D2*
X1727338Y2515346D1*
X1747434D1*
X2103365Y2531097D2*
X2090432D1*
X2086154Y2529671D1*
X2084695Y2528212D1*
X2083269Y2525360D1*
Y2521049D1*
X2084695Y2518198D1*
X2086154Y2516738D1*
X2090432Y2515312D1*
X2103365D1*
Y2545456D1*
X2052483Y2522475D2*
X2053909Y2519623D1*
X2056794Y2516738D1*
X2059646Y2515312D1*
X2065383D1*
X2068268Y2516738D1*
X2071120Y2519623D1*
X2072579Y2522475D1*
X2074005Y2526786D1*
Y2533982D1*
X2072579Y2538260D1*
X2071120Y2541145D1*
X2068268Y2543997D1*
X2065383Y2545456D1*
X2059646D1*
X2056794Y2543997D1*
X2053909Y2541145D1*
X2052483Y2538260D1*
X2036057Y2515346D2*
X2040335Y2516772D1*
X2041794Y2519623D1*
Y2522509D1*
X2040335Y2525360D1*
X2037483Y2526820D1*
X2031746Y2528245D1*
X2027435Y2529671D1*
X2024583Y2532557D1*
X2023157Y2535408D1*
Y2539719D1*
X2024583Y2542571D1*
X2026009Y2544030D1*
X2030320Y2545456D1*
X2036057D1*
X2040335Y2544030D1*
X2041794Y2542571D1*
X2043220Y2539719D1*
Y2535408D1*
X2041794Y2532557D1*
X2038909Y2529671D1*
X2034631Y2528245D1*
X2028894Y2526820D1*
X2026009Y2525360D1*
X2024583Y2522509D1*
Y2519623D1*
X2026009Y2516772D1*
X2030320Y2515346D1*
X2036057D1*
X2013893Y2521083D2*
X2011008Y2519623D1*
X2006697Y2515346D1*
Y2545456D1*
X1991697D2*
X1977338Y2515346D1*
X1997434D1*
X1603365Y1931097D2*
X1590432D1*
X1586154Y1929671D1*
X1584695Y1928212D1*
X1583269Y1925360D1*
Y1921049D1*
X1584695Y1918198D1*
X1586154Y1916738D1*
X1590432Y1915312D1*
X1603365D1*
Y1945456D1*
X1552483Y1922475D2*
X1553909Y1919623D1*
X1556794Y1916738D1*
X1559646Y1915312D1*
X1565383D1*
X1568268Y1916738D1*
X1571120Y1919623D1*
X1572579Y1922475D1*
X1574005Y1926786D1*
Y1933982D1*
X1572579Y1938260D1*
X1571120Y1941145D1*
X1568268Y1943997D1*
X1565383Y1945456D1*
X1559646D1*
X1556794Y1943997D1*
X1553909Y1941145D1*
X1552483Y1938260D1*
X1536057Y1915346D2*
X1540335Y1916772D1*
X1541794Y1919623D1*
Y1922509D1*
X1540335Y1925360D1*
X1537483Y1926820D1*
X1531746Y1928245D1*
X1527435Y1929671D1*
X1524583Y1932557D1*
X1523157Y1935408D1*
Y1939719D1*
X1524583Y1942571D1*
X1526009Y1944030D1*
X1530320Y1945456D1*
X1536057D1*
X1540335Y1944030D1*
X1541794Y1942571D1*
X1543220Y1939719D1*
Y1935408D1*
X1541794Y1932557D1*
X1538909Y1929671D1*
X1534631Y1928245D1*
X1528894Y1926820D1*
X1526009Y1925360D1*
X1524583Y1922509D1*
Y1919623D1*
X1526009Y1916772D1*
X1530320Y1915346D1*
X1536057D1*
X1513893Y1921083D2*
X1511008Y1919623D1*
X1506697Y1915346D1*
Y1945456D1*
X1491697D2*
X1477338Y1915346D1*
X1497434D1*
X1853365Y1931097D2*
X1840432D1*
X1836154Y1929671D1*
X1834695Y1928212D1*
X1833269Y1925360D1*
Y1921049D1*
X1834695Y1918198D1*
X1836154Y1916738D1*
X1840432Y1915312D1*
X1853365D1*
Y1945456D1*
X1802483Y1922475D2*
X1803909Y1919623D1*
X1806794Y1916738D1*
X1809646Y1915312D1*
X1815383D1*
X1818268Y1916738D1*
X1821120Y1919623D1*
X1822579Y1922475D1*
X1824005Y1926786D1*
Y1933982D1*
X1822579Y1938260D1*
X1821120Y1941145D1*
X1818268Y1943997D1*
X1815383Y1945456D1*
X1809646D1*
X1806794Y1943997D1*
X1803909Y1941145D1*
X1802483Y1938260D1*
X1786057Y1915346D2*
X1790335Y1916772D1*
X1791794Y1919623D1*
Y1922509D1*
X1790335Y1925360D1*
X1787483Y1926820D1*
X1781746Y1928245D1*
X1777435Y1929671D1*
X1774583Y1932557D1*
X1773157Y1935408D1*
Y1939719D1*
X1774583Y1942571D1*
X1776009Y1944030D1*
X1780320Y1945456D1*
X1786057D1*
X1790335Y1944030D1*
X1791794Y1942571D1*
X1793220Y1939719D1*
Y1935408D1*
X1791794Y1932557D1*
X1788909Y1929671D1*
X1784631Y1928245D1*
X1778894Y1926820D1*
X1776009Y1925360D1*
X1774583Y1922509D1*
Y1919623D1*
X1776009Y1916772D1*
X1780320Y1915346D1*
X1786057D1*
X1763893Y1921083D2*
X1761008Y1919623D1*
X1756697Y1915346D1*
Y1945456D1*
X1741697D2*
X1727338Y1915346D1*
X1747434D1*
X2353365Y2531097D2*
X2340432D1*
X2336154Y2529671D1*
X2334695Y2528212D1*
X2333269Y2525360D1*
Y2521049D1*
X2334695Y2518198D1*
X2336154Y2516738D1*
X2340432Y2515312D1*
X2353365D1*
Y2545456D1*
X2302483Y2522475D2*
X2303909Y2519623D1*
X2306794Y2516738D1*
X2309646Y2515312D1*
X2315383D1*
X2318268Y2516738D1*
X2321120Y2519623D1*
X2322579Y2522475D1*
X2324005Y2526786D1*
Y2533982D1*
X2322579Y2538260D1*
X2321120Y2541145D1*
X2318268Y2543997D1*
X2315383Y2545456D1*
X2309646D1*
X2306794Y2543997D1*
X2303909Y2541145D1*
X2302483Y2538260D1*
X2286057Y2515346D2*
X2290335Y2516772D1*
X2291794Y2519623D1*
Y2522509D1*
X2290335Y2525360D1*
X2287483Y2526820D1*
X2281746Y2528245D1*
X2277435Y2529671D1*
X2274583Y2532557D1*
X2273157Y2535408D1*
Y2539719D1*
X2274583Y2542571D1*
X2276009Y2544030D1*
X2280320Y2545456D1*
X2286057D1*
X2290335Y2544030D1*
X2291794Y2542571D1*
X2293220Y2539719D1*
Y2535408D1*
X2291794Y2532557D1*
X2288909Y2529671D1*
X2284631Y2528245D1*
X2278894Y2526820D1*
X2276009Y2525360D1*
X2274583Y2522509D1*
Y2519623D1*
X2276009Y2516772D1*
X2280320Y2515346D1*
X2286057D1*
X2263893Y2521083D2*
X2261008Y2519623D1*
X2256697Y2515346D1*
Y2545456D1*
X2241697D2*
X2227338Y2515346D1*
X2247434D1*
X2103365Y1931097D2*
X2090432D1*
X2086154Y1929671D1*
X2084695Y1928212D1*
X2083269Y1925360D1*
Y1921049D1*
X2084695Y1918198D1*
X2086154Y1916738D1*
X2090432Y1915312D1*
X2103365D1*
Y1945456D1*
X2052483Y1922475D2*
X2053909Y1919623D1*
X2056794Y1916738D1*
X2059646Y1915312D1*
X2065383D1*
X2068268Y1916738D1*
X2071120Y1919623D1*
X2072579Y1922475D1*
X2074005Y1926786D1*
Y1933982D1*
X2072579Y1938260D1*
X2071120Y1941145D1*
X2068268Y1943997D1*
X2065383Y1945456D1*
X2059646D1*
X2056794Y1943997D1*
X2053909Y1941145D1*
X2052483Y1938260D1*
X2036057Y1915346D2*
X2040335Y1916772D1*
X2041794Y1919623D1*
Y1922509D1*
X2040335Y1925360D1*
X2037483Y1926820D1*
X2031746Y1928245D1*
X2027435Y1929671D1*
X2024583Y1932557D1*
X2023157Y1935408D1*
Y1939719D1*
X2024583Y1942571D1*
X2026009Y1944030D1*
X2030320Y1945456D1*
X2036057D1*
X2040335Y1944030D1*
X2041794Y1942571D1*
X2043220Y1939719D1*
Y1935408D1*
X2041794Y1932557D1*
X2038909Y1929671D1*
X2034631Y1928245D1*
X2028894Y1926820D1*
X2026009Y1925360D1*
X2024583Y1922509D1*
Y1919623D1*
X2026009Y1916772D1*
X2030320Y1915346D1*
X2036057D1*
X2013893Y1921083D2*
X2011008Y1919623D1*
X2006697Y1915346D1*
Y1945456D1*
X1991697D2*
X1977338Y1915346D1*
X1997434D1*
X2353365Y1931097D2*
X2340432D1*
X2336154Y1929671D1*
X2334695Y1928212D1*
X2333269Y1925360D1*
Y1921049D1*
X2334695Y1918198D1*
X2336154Y1916738D1*
X2340432Y1915312D1*
X2353365D1*
Y1945456D1*
X2302483Y1922475D2*
X2303909Y1919623D1*
X2306794Y1916738D1*
X2309646Y1915312D1*
X2315383D1*
X2318268Y1916738D1*
X2321120Y1919623D1*
X2322579Y1922475D1*
X2324005Y1926786D1*
Y1933982D1*
X2322579Y1938260D1*
X2321120Y1941145D1*
X2318268Y1943997D1*
X2315383Y1945456D1*
X2309646D1*
X2306794Y1943997D1*
X2303909Y1941145D1*
X2302483Y1938260D1*
X2286057Y1915346D2*
X2290335Y1916772D1*
X2291794Y1919623D1*
Y1922509D1*
X2290335Y1925360D1*
X2287483Y1926820D1*
X2281746Y1928245D1*
X2277435Y1929671D1*
X2274583Y1932557D1*
X2273157Y1935408D1*
Y1939719D1*
X2274583Y1942571D1*
X2276009Y1944030D1*
X2280320Y1945456D1*
X2286057D1*
X2290335Y1944030D1*
X2291794Y1942571D1*
X2293220Y1939719D1*
Y1935408D1*
X2291794Y1932557D1*
X2288909Y1929671D1*
X2284631Y1928245D1*
X2278894Y1926820D1*
X2276009Y1925360D1*
X2274583Y1922509D1*
Y1919623D1*
X2276009Y1916772D1*
X2280320Y1915346D1*
X2286057D1*
X2263893Y1921083D2*
X2261008Y1919623D1*
X2256697Y1915346D1*
Y1945456D1*
X2241697D2*
X2227338Y1915346D1*
X2247434D1*
M02*
