G04 DipTrace 3.0.0.2*
G04 Нижняямаска.gbr*
%MOIN*%
G04 #@! TF.FileFunction,Soldermask,Bot*
G04 #@! TF.Part,Single*
%ADD28C,0.065*%
%ADD29C,0.03937*%
%ADD42C,0.066929*%
%ADD44C,0.066929*%
%ADD46R,0.066929X0.066929*%
%FSLAX26Y26*%
G04*
G70*
G90*
G75*
G01*
G04 BotMask*
%LPD*%
D46*
X3093701Y3393701D3*
D44*
Y3293701D3*
Y3193701D3*
Y3093701D3*
Y2993701D3*
Y2893701D3*
Y2793701D3*
Y2693701D3*
Y2593701D3*
Y2493701D3*
Y2393701D3*
Y2293701D3*
Y2193701D3*
Y2093701D3*
Y1993701D3*
X3693701D3*
Y2093701D3*
Y2193701D3*
Y2293701D3*
Y2393701D3*
Y2493701D3*
Y2593701D3*
Y2693701D3*
Y2793701D3*
Y2893701D3*
Y2993701D3*
Y3093701D3*
Y3193701D3*
Y3293701D3*
Y3393701D3*
D28*
X3093701Y3493701D3*
X3693701D3*
Y1893701D3*
X3093701D3*
D29*
X506201Y1306201D3*
X2156201D3*
Y531201D3*
X506201D3*
D42*
X543701Y3293701D3*
Y3193701D3*
Y2893701D3*
Y3393701D3*
Y3093701D3*
Y2793701D3*
Y2693701D3*
Y2593701D3*
Y2493701D3*
Y2393701D3*
Y2993701D3*
Y2293701D3*
X485039Y1082677D3*
Y1003937D3*
Y925197D3*
Y846457D3*
Y767717D3*
M02*
